<svg xmlns="http://www.w3.org/2000/svg" fill="none" viewBox="0 0 180 160"><ellipse cx="85.776" cy="75.848" fill="#FFE9E9" rx="73.776" ry="73.848"/><path fill="#212527" d="M158.356 42.351 32.175 43.367s-1.11 27.514.206 38.792c1.316 11.278-.206 49.155-.206 49.155a359.644 359.644 0 0 0 43.039 1.175l-8.326 5.486a4.81 4.81 0 0 0 1.833 4.517l4.427-1.364 1.456 1.364 3.716-1.271s1.523-4.61-1.561-8.792c22.879-.942 44.736-3.106 44.736-3.106s.352 1.433 4.924 5.99 10.816 20.246 10.816 20.246l14.997-23.093 8.578-1.139s-1.721-21.573 0-34.577c1.721-13.004-2.454-54.399-2.454-54.399Z" opacity=".2"/><path fill="#fff" d="M157.408 126.455s-46.719-.966-66.538 0c-14.188.694-56.822 0-56.822 0s.875-31.199 0-47.014c-.56-10.086 0-40.409 0-40.409s45.383.09 59.972-.478c24.146-.936 63.388.478 63.388.478s.942 21.696 0 34.607c-.955 13.17 0 52.816 0 52.816Z"/><path fill="#B7CFFF" stroke="#212527" stroke-linejoin="round" stroke-width=".349" d="M151.864 61.364H101.57V93.96h50.294V61.364Z"/><path stroke="#212527" stroke-linecap="round" stroke-linejoin="round" stroke-width=".325" d="M157.408 126.455s-46.719-.966-66.538 0c-14.188.694-56.822 0-56.822 0s.875-31.199 0-47.014c-.56-10.086 0-40.409 0-40.409s45.383.09 59.972-.478c24.146-.936 63.388.478 63.388.478s.942 21.696 0 34.607c-.955 13.17 0 52.816 0 52.816Z"/><path fill="#fff" stroke="#212527" stroke-linecap="round" stroke-linejoin="round" stroke-width=".649" d="M44.727 67.082s21.579-.395 35.253 0c0 0-.033 3.674 0 5.121 0 0-31.832-.262-35.253 0 0-.007.262-4.209 0-5.121ZM109.993 65.089v5.31s26.927-.262 29.809-.79l-.054-5.121s-20.199-.213-29.755.6Z"/><path fill="#FF5252" stroke="#212527" stroke-linecap="round" stroke-linejoin="round" stroke-width=".649" d="m136.843 72.197.126 3.674s9.539-.664 10.942-.524v-3.678s-8.442-.13-11.068.528Z"/><path stroke="#FF5252" stroke-linecap="round" stroke-linejoin="round" stroke-width=".649" d="M46.036 67.052s-1.114 2.655-.848 2.781c.265.127 1.326-2.628 2.36-2.495 1.035.132-1.876 4.809-1.2 4.799.677-.01 2.984-5.367 3.69-5.085.707.282-1.704 4.454-1.246 4.75.457.295 2.755-5.052 3.478-4.76.723.292-2.033 4.564-1.326 4.564.706 0 3.083-4.647 3.803-4.647.72 0-2.228 4.053-1.509 4.594.72.54 2.494-5.115 3.545-4.594 1.05.521-1.575 4.315-.79 4.723.786.408 2.819-5.048 3.476-4.756.656.292-1.957 5.168-1.506 5.168.451 0 3.343-5.61 3.999-5.178.656.431-2.427 5.181-1.837 5.184.59.004 3.674-5.755 4.46-5.473.786.282-2.033 4.464-1.326 4.73.706.265 2.427-2.957 2.755-2.957.328 0-1.15 2.957-.74 2.957.412 0 1.99-4.936 2.772-4.438.783.498-.918 3.253-.523 3.386.394.132 2.884-3.545 3.604-3.02.72.524-2.819 4.845-1.704 4.852 1.114.006 3.043-4.8 3.965-4.723.922.076-1.837 4.265-1.114 4.331.723.066 2.165-4.726 2.951-4.464.786.262-1.1 3.601-.59 3.784.51.182 1.638-3.346 2.556-3.283.919.063-1.704 3.416-.59 3.548 1.114.133 1.502-3.73 2.623-3.584 1.12.146-1.41 3.538-.79 3.983.62.444 1.546-1.706 1.546-1.706"/><path stroke="#212527" stroke-linecap="round" stroke-linejoin="round" stroke-width=".649" d="M56.771 74.5s-4.93 16.103 36.338 14.358"/><path stroke="#212527" stroke-linecap="round" stroke-linejoin="round" stroke-width=".649" d="m93.109 87.703 1.048 1.287-1.048.658"/><path fill="#212527" fill-rule="evenodd" d="M50.264 48.69c.23-.248.508-.39.885-.39h.166v.902c-.898 0-1.05.013-1.05.348v1.126h-.873V48.3h.872v.39Zm6.572-.435c.71 0 1.264.392 1.264 1.232s-.553 1.232-1.264 1.232a1.1 1.1 0 0 1-.886-.413v.369h-.872v-2.908h.872v.901a1.1 1.1 0 0 1 .886-.413Zm-.249 1.685c.353 0 .593-.158.593-.453 0-.295-.24-.453-.593-.453-.392 0-.637.158-.637.453 0 .295.245.453.637.453Zm3.319-1.72c.846 0 1.535.392 1.535 1.267 0 .884-.69 1.25-1.535 1.25-.846 0-1.535-.366-1.535-1.25 0-.875.689-1.267 1.535-1.267Zm0 1.738c.353 0 .593-.167.593-.471 0-.304-.24-.47-.593-.47-.392 0-.637.166-.637.47 0 .304.245.47.637.47Zm-6.743-1.738c.846 0 1.535.392 1.535 1.267 0 .884-.689 1.25-1.535 1.25s-1.535-.366-1.535-1.25c0-.875.689-1.267 1.535-1.267Zm0 1.738c.353 0 .593-.167.593-.471 0-.304-.24-.47-.593-.47-.393 0-.637.166-.637.47 0 .304.244.47.637.47Zm9.83-2.187v.528h.829v.792h-.829v.528c0 .282.401.229.829.207v.849c-.292.044-.593.044-.646.044-.51 0-1.055-.23-1.055-.968v-.66h-.48V48.3h.48v-.528h.872Zm3.319.897v-.369h.872v2.376h-.872v-.369a1.1 1.1 0 0 1-.885.413c-.711 0-1.265-.392-1.265-1.232s.554-1.232 1.265-1.232c.439 0 .729.214.885.413Zm-.637 1.272c.392 0 .637-.158.637-.453 0-.295-.245-.453-.637-.453-.353 0-.593.158-.593.453 0 .295.24.453.593.453Zm8.67-1.636h.872v2.375h-.873v-.368a1.1 1.1 0 0 1-.885.412c-.71 0-1.264-.391-1.264-1.232 0-.84.553-1.231 1.264-1.231.44 0 .73.213.885.412v-.368Zm-.637 1.64c.392 0 .636-.158.636-.453 0-.294-.244-.453-.636-.453-.353 0-.593.159-.593.453 0 .295.24.453.593.453Zm-5.612-.18c.348 0 .549.229.549.48 0 .25-.2.47-.55.47-.353 0-.553-.22-.553-.47 0-.251.2-.48.554-.48Zm2.803-.48V48.3h.873v2.376h-.873v-.373c-.15.198-.455.417-.841.417-.777 0-1.204-.4-1.204-1.214v-1.206h.873v1.047c0 .414.222.502.584.502.366 0 .588-.15.588-.563Z" clip-rule="evenodd"/><path fill="#FF5252" fill-rule="evenodd" d="M43.502 48.701v-.39h-.872v2.376h.872v-1.126c0-.335.153-.348 1.051-.348v-.901h-.165a1.14 1.14 0 0 0-.886.39Z" clip-rule="evenodd"/><path fill="#FF5252" fill-rule="evenodd" d="M40.561 49.499c0-1.638 1.32-2.97 2.944-2.97 1.623 0 2.943 1.332 2.943 2.97 0 1.637-1.32 2.969-2.943 2.969-1.624 0-2.944-1.332-2.944-2.97Zm.59 0c0 1.31 1.056 2.375 2.354 2.375s2.355-1.066 2.355-2.375c0-1.31-1.057-2.376-2.355-2.376S41.15 48.19 41.15 49.5Z" clip-rule="evenodd"/><path fill="#212527" d="M45.24 56.435v-.057a.035.035 0 0 0 .004-.014c0-.005 0-.01-.002-.015a.036.036 0 0 0-.02-.021l-.03-.028c-.107-.095-.584.09-.604.229-.17 1.08-.409 2.148-.511 3.237-.041.441-.08.88-.148 1.316-.037.389-.144.768-.318 1.118-.134.229.532.071.63-.084.181-.327.296-.686.337-1.057.078-.457.121-.914.165-1.39.043-.478.093-.914.175-1.37.155-.651.254-1.313.297-1.98l-.566.271c-.023.014-.023.032 0 .057.039.11.591-.086.584-.228l.007.016Z"/><path fill="#212527" d="M43.958 56.783c.493-.52 1.3-.79 1.98-.947.611-.142 1.503-.306 2.01.176.554.525.385 1.354-.14 1.826-.631.557-1.439.866-2.052 1.455-.067.064-.228.258-.16.363.069.105.246 0 .32-.062.934-.685 2.415-.498 2.616.806.066.427.034 1.041-.37 1.283s-.94.247-1.391.199a4.648 4.648 0 0 1-1.64-.5c-.228-.114-.737.457-.457.607 1.04.553 2.58.8 3.598.074a2.09 2.09 0 0 0 .88-1.763c0-.7-.328-1.348-1.013-1.599-.787-.288-1.66.053-2.299.523l.16.304c.561-.537 1.312-.824 1.902-1.327.543-.456 1.013-1.089.967-1.827-.1-1.625-2.137-1.242-3.163-.899a4.057 4.057 0 0 0-2.001 1.3c-.041.056-.1.157-.02.195.08.04.244-.127.284-.17l-.01-.017ZM54.93 58.692c0-.509-.397-.817-.855-.95a1.986 1.986 0 0 0-1.423.185 4.004 4.004 0 0 0-2.154 2.185c-.267.717-.558 1.98.306 2.419.72.363 1.469-.083 2-.572.913-.847 1.613-2.027 2.115-3.164l-.74-.24a7.678 7.678 0 0 0-.293 1.904c-.023.608 0 1.37.495 1.804a1.424 1.424 0 0 0 1.113.325c.15-.021.518-.067.36-.286-.198-.274-.536-.167-.81-.15h-.11a.175.175 0 0 1 .076.024c-.03-.063.028.041-.025-.01a.835.835 0 0 1-.07-.067.966.966 0 0 1-.121-.208 2.532 2.532 0 0 1-.162-.913 6.883 6.883 0 0 1 .287-2.174c.073-.244-.634-.477-.74-.24a10.566 10.566 0 0 1-1.51 2.482c-.378.457-.825.962-1.404 1.172-.039.013-.3.045-.167.064.085.01.041.04.027-.014-.013-.055-.077-.144-.1-.228a2.249 2.249 0 0 1 .023-1.08c.154-.789.572-1.502 1.184-2.021a4.332 4.332 0 0 1 1.327-.772.79.79 0 0 1 .457-.078c.166.055.205.267.228.418.013.194.684.347.684.185h.002ZM66.245 58.692c0-.509-.397-.817-.856-.95a1.986 1.986 0 0 0-1.423.185 4.004 4.004 0 0 0-2.154 2.185c-.266.717-.558 1.98.306 2.419.72.363 1.469-.083 2-.572.913-.847 1.613-2.027 2.115-3.164l-.739-.24a7.677 7.677 0 0 0-.294 1.904c-.023.608 0 1.37.495 1.804a1.424 1.424 0 0 0 1.113.325c.15-.021.518-.067.36-.286-.198-.274-.536-.167-.81-.15h-.109a.175.175 0 0 1 .075.024c-.03-.063.028.041-.025-.01a.85.85 0 0 1-.07-.067.97.97 0 0 1-.121-.208 2.532 2.532 0 0 1-.162-.913 6.883 6.883 0 0 1 .287-2.174c.073-.244-.634-.477-.739-.24a10.562 10.562 0 0 1-1.51 2.482c-.379.457-.826.962-1.405 1.172-.039.013-.299.045-.167.064.085.01.042.04.028-.014-.014-.055-.078-.144-.1-.228a2.249 2.249 0 0 1 .022-1.08c.154-.789.572-1.502 1.184-2.021a4.331 4.331 0 0 1 1.328-.772.79.79 0 0 1 .456-.078c.166.055.205.267.228.418.013.194.684.347.684.185h.003ZM68.89 57.814v-.053c.028-.155-.168-.03-.204 0a.794.794 0 0 0-.252.514c-.004.146-.02.29-.047.434-.078.456-.153.913-.228 1.351-.076.439-.167.859-.229 1.293-.102.436-.12.888-.052 1.331.027.116.205-.014.228-.043a.751.751 0 0 0 .228-.384 4.71 4.71 0 0 0 .057-.646c.016-.19.041-.38.07-.569.063-.418.15-.833.218-1.249.068-.415.127-.856.189-1.283.032-.228.139-.593.018-.804l-.422.514a.2.2 0 0 1 .016.039c.04.098.183-.062.208-.09a.765.765 0 0 0 .196-.364l.007.009ZM71.95 57.883c-.404.308-.374.456-.436.835-.025.174-.057.345-.089.519-.061.324-.12.648-.166.975-.1.8-.132 1.606-.099 2.41 0 .261.65-.122.655-.341-.008-.818.03-1.635.114-2.448.048-.34.112-.685.162-1.019.025-.157.048-.315.064-.475.016-.16.078-.377-.02-.488-.037-.046-.153 0-.185.032Z"/><path fill="#212527" d="M68.411 60.803c.214-.062.433-.104.655-.123h.753c.283.008.566 0 .848-.025.153-.014.306-.032.456-.05.164-.01.326-.037.484-.08.24-.085.073-.736-.164-.742a3.268 3.268 0 0 0-.49.06 8.478 8.478 0 0 1-.489.056 7.313 7.313 0 0 1-.837.035H68.9a1.136 1.136 0 0 0-.667.205c-.102.094.014.685.176.646l.002.018ZM76.822 58.975c.26-.292.538-.767.262-1.141-.301-.407-.894-.457-1.332-.295-.87.331-1.533 1.224-1.937 2.026-.379.744-.684 1.698-.379 2.511.26.701.96.937 1.659.847.798-.098 1.825-.644 2.053-1.472.04-.144-.114-.15-.212-.121a.713.713 0 0 0-.395.306c-.096.18-.231.337-.397.456a1.813 1.813 0 0 1-.627.252c-.493.093-1.04-.014-1.32-.457-.343-.553-.217-1.288-.019-1.866.2-.622.545-1.188 1.004-1.653.29-.278.574-.477.98-.29a.594.594 0 0 1 .381.404.82.82 0 0 1-.216.56c-.073.105-.028.182.09.175a.684.684 0 0 0 .402-.246l.003.004ZM78.039 57.488a66.335 66.335 0 0 1-.035 5.555c-.017.317.559-.06.572-.284.102-1.885.106-3.773.01-5.657.001-.148-.257-.017-.308.018a.475.475 0 0 0-.237.368h-.002ZM78.378 55.063l-.073-.244a.239.239 0 0 0-.12-.276.023.023 0 0 0-.016 0 .112.112 0 0 0-.074 0 .25.25 0 0 0-.098.074.613.613 0 0 0-.106.342c-.003.086.005.173.023.257a.865.865 0 0 0 .09.242c.05.105.136.19.242.237.038.014.08.02.12.018a.205.205 0 0 0 .084-.012.338.338 0 0 0 .184-.204.934.934 0 0 0-.008-.68.666.666 0 0 0-.149-.231.315.315 0 0 0-.155-.094.258.258 0 0 0-.096 0 .217.217 0 0 0-.082.035.283.283 0 0 0-.106.17.615.615 0 0 0 0 .237c.008.05.02.098.038.145.019.057.048.11.085.158.025.026.074.088.12.071a.145.145 0 0 0 .076-.12v-.029l-.018.06a.096.096 0 0 1 .02-.04l-.032.043a.166.166 0 0 1 .05-.047l-.042.025a.126.126 0 0 1 .067-.019h-.024c.024 0 .048.007.069.019l-.049-.025c.016.008.03.018.043.03l-.047-.046c.01.01.02.022.029.035l-.043-.064.014.027-.037-.078.013.033-.029-.09v.032l-.016-.092a.21.21 0 0 1 0 .052v-.086.086-.076a.407.407 0 0 1-.016.084l.02-.062a.373.373 0 0 1-.039.076l.031-.045a.202.202 0 0 1-.057.055l.039-.022a.206.206 0 0 1-.105.024h.045a.234.234 0 0 1-.104-.03l.045.024a.217.217 0 0 1-.055-.04l.043.044a.173.173 0 0 1-.03-.038l.038.061-.018-.035.032.076v-.03l.027.085c0-.012 0-.024-.01-.037l.016.088a.28.28 0 0 1 0-.039v.082-.049.072c0-.025 0-.047.014-.072l-.016.057a.239.239 0 0 1 .028-.071l-.026.04a.202.202 0 0 1 .059-.06l-.033.02a.131.131 0 0 1 .074-.02h-.035a.102.102 0 0 0 .043 0l.029-.02a.178.178 0 0 0 .03-.09l-.016-.003ZM83.294 57.506c-.094.356-.114.746-.18 1.112-.076.402-.158.803-.215 1.21-.057.406-.089.86-.123 1.292-.034.432-.117.914-.126 1.384 0 .162.57.495.63.322.116-.43.178-.874.185-1.32.031-.436.05-.874.1-1.308.05-.434.126-.808.19-1.21a3.91 3.91 0 0 0 .109-1.183c-.02-.114-.536-.425-.57-.299Z"/><path fill="#212527" d="M83.254 57.283c-.926-.055-1.977.14-2.7.76a1.974 1.974 0 0 0-.685 1.327 1.247 1.247 0 0 0 .995 1.322c.315.055.638.049.951-.018.323-.056.64-.138.949-.246.208-.076.03-.747-.192-.713-.492.075-.953.271-1.46.276a1.41 1.41 0 0 1-.695-.157 1.706 1.706 0 0 1-.194-.165c.034 0 .023.155.027.069 0 0 0-.075.016-.112.178-.845 1.045-1.297 1.804-1.5a7.011 7.011 0 0 1 1.37-.208c.118 0 0-.623-.172-.635h-.014Z"/><path fill="#212527" d="M82.986 59.729a51.4 51.4 0 0 1-1.896 1.555c-.529.413-1.004.877-1.667 1.06-.203.054-.251.773-.057.744.684-.105 1.222-.672 1.738-1.092.31-.253.632-.488.933-.753.3-.265.614-.592.912-.898.08-.11.121-.243.117-.379 0-.027 0-.303-.083-.228l.003-.01ZM57.407 57.618c-.253.808-.253 1.678-.399 2.512-.157.913-.33 1.801-.486 2.703l.648-.352v-.089c-.027-.274-.609.183-.63.35v.091c-.022.178.167.158.279.112a.635.635 0 0 0 .37-.404c.184-.893.316-1.802.467-2.701.14-.834.18-1.676.32-2.512.025-.149-.128-.1-.213-.057a.685.685 0 0 0-.337.347h-.019ZM58.252 60.261c.36.049.697.208.963.457.11.092.207.197.292.313l.025.04s.043.076.016.026c-.028-.05 0 .014 0 .025l.034.07c.173.47.385.922.634 1.355.105.157.315.438.538.34.135-.057.13-.26.117-.386-.014-.125-.055-.336-.199-.351h-.011l-.048-.021-.043-.02c-.046-.019.016.018 0 0a1.08 1.08 0 0 1-.092-.09l.014.016-.027-.036a.761.761 0 0 1-.046-.071c-.032-.046-.057-.096-.086-.144-.03-.048.018.039 0-.02-.019-.06-.03-.06-.044-.09a4.397 4.397 0 0 1-.16-.36c-.088-.213-.17-.43-.273-.635a2.136 2.136 0 0 0-.541-.685 1.91 1.91 0 0 0-.522-.324 1.108 1.108 0 0 0-.295-.076.538.538 0 0 0-.305.044c-.09.034-.06.251-.053.322.007.07.026.29.121.301h-.009Z"/><path fill="#212527" d="M60.134 57.397c-.536.429-.945 1.014-1.417 1.51a4.064 4.064 0 0 1-1.638 1.14c-.155.053-.038.192.046.252a.656.656 0 0 0 .493.13c.668-.171 1.22-.667 1.679-1.158.495-.527.95-1.089 1.437-1.623.073-.078-.482-.356-.6-.263v.012Z"/><path stroke="#212527" stroke-linejoin="round" stroke-width=".349" d="M43.528 96.176h106.494M99.89 99.74h41.826M99.89 103.004h41.826M99.89 105.974h41.826M99.89 108.944h41.826M99.89 112.21h41.826M99.89 115.178h41.826M97.605 60.864v.357"/><path stroke="#212527" stroke-dasharray="0.69 0.69" stroke-linejoin="round" stroke-width=".349" d="M97.605 61.923V94.02"/><path stroke="#212527" stroke-linejoin="round" stroke-width=".349" d="M97.605 94.376v.356M43.528 75.688H94.55M43.528 78.658H94.55"/><path fill="#FF5252" stroke="#212527" stroke-linecap="round" stroke-linejoin="round" stroke-width=".649" d="M64.802 75.451h30.657l-.192 4.892-19.868.458c-6.963.163-10.362.392-10.362.392l-.235-5.742Z"/><path stroke="#212527" stroke-linejoin="round" stroke-width=".349" d="M43.528 81.922H94.55M43.528 84.892H94.55M43.528 87.862H94.55M43.528 91.127H94.55"/><path fill="#FFE886" stroke="#212527" stroke-linejoin="round" stroke-width=".349" d="M67.511 99.382H43.528v17.148h23.983V99.382Z"/><path stroke="#212527" stroke-linejoin="round" stroke-width=".349" d="m43.528 116.53 23.983-17.148M43.528 99.382l23.983 17.148"/><path fill="#FFE886" stroke="#212527" stroke-linejoin="round" stroke-width=".349" d="M94.88 99.382H70.895v17.148h23.983V99.382Z"/><path fill="#fff" d="M70.255 102.058c-3.408-1.576-9.592-.507-14.181 2.38-4.59 2.888-5.534 12.34 11.273 9.582 16.808-2.758 6.178-10.518.292-10.518"/><path stroke="#FF5252" stroke-linecap="round" stroke-linejoin="round" stroke-width=".649" d="M70.255 102.058c-3.408-1.576-9.592-.507-14.181 2.38-4.59 2.888-5.534 12.34 11.273 9.582 16.808-2.758 6.178-10.518.292-10.518"/><path stroke="#FF5252" stroke-linecap="round" stroke-linejoin="round" stroke-width=".649" d="M56.926 107.179s1.028-.932 1.472-.995c.444-.063-.839.859 0 .995.84.137.663-.331 1.48-.497.815-.166 1.067.743 1.067.743s1.31-.451 2.099-.664c.789-.212.262 1.046 1.326.664s.584-.976 2.258-.664c1.674.312 4.924.113 6.383 0M58.398 109.961c.315-.803-.08-.955.839-.55.918.404 1.442.959 1.837.55a1.187 1.187 0 0 1 1.326-.312c.391.166-.527.429.391.166a3.688 3.688 0 0 0 1.446-.77s-.232.561.736 1.059c.968.498 1.658-.528 1.658-.528a41.76 41.76 0 0 1 4.433.067"/><path stroke="#212527" stroke-linejoin="round" stroke-width=".349" d="m70.896 116.53 23.986-17.148M70.896 99.382l23.986 17.148"/><path fill="#fff" stroke="#212527" stroke-linecap="round" stroke-linejoin="round" stroke-width=".649" d="M104.505 85.336s26.195-.61 29.762-1.819v7.302s-25.594.103-30.034.913c0 .006-.258-4.949.272-6.396Z"/><path stroke="#FF5252" stroke-linecap="round" stroke-linejoin="round" stroke-width=".649" d="M106.309 85.286s-2.503 3.866-1.989 4.36c.514.495 3.054-4.191 3.83-4.314.776-.123-2.706 6.446-2.374 6.675.331.229 4.728-6.944 5.772-6.93 1.045.013-2.321 6.243-1.658 6.216.664-.026 3.754-6.107 4.881-6.216 1.128-.11-2.613 6.123-1.747 6.097.865-.027 4.337-6.665 5.053-6.306.716.358-3.564 5.775-2.43 6.22 1.134.444 4.032-5.806 5.421-6.118 1.389-.312-3.213 5.692-1.87 5.849 1.343.156 3.355-6.264 4.403-5.749 1.048.514-1.923 4.076-1.485 4.315.437.239 1.837-4.292 3.236-4.315 1.399-.023-1.658 4.076-1.326 4.57.331.495 1.754-1.211 1.754-1.211"/><path fill="#212527" d="m91.88 27.93 1.396-1.599h3.243a7.033 7.033 0 0 0 2.444-1.059s-1.233-1.258-2.722-1.304h-2.799l-7.473-1.354-41.633 3.717a5.592 5.592 0 0 0 .752 5.078l46.792-3.478ZM110.608 31.41l1.114-.96 3.627-.04c.233-1.173.26-2.378.08-3.561l-9.908-3.445c-2.546 1.59-1.512 8.005-1.512 8.005h6.599Z" opacity=".2"/><path fill="#FF5252" stroke="#212527" stroke-linecap="round" stroke-linejoin="round" stroke-width=".325" d="M96.062 20.27s1.747-.219 2.742.585c0 0-.13 1.029-2.752 1.29l.01-1.875Z"/><path fill="#212527" d="m92.835 19.813-2.278-1.55L44.29 21.99c-2.033 3.292.504 6.552.504 6.552l46.57-3.87 1.635-1.6 3.23-.558c.198-.404.298-.85.29-1.3a2.056 2.056 0 0 0-.433-1.375l-3.25-.026Z"/><path fill="#FF5252" d="m59.572 21.186 20.637-1.696a.663.663 0 0 1-.56.926L60.3 22.076a.66.66 0 0 1-.73-.664v-.226Z"/><path stroke="#fff" stroke-linecap="round" stroke-linejoin="round" stroke-width=".325" d="M90.514 18.98s1.489 1.66.438 4.979M93.011 20.244c.261.67.33 1.4.196 2.108M44.64 22.614s1.575 1.377.524 5.31" opacity=".3"/><path fill="#fff" d="M45.526 22.352s.497.063.696 2.559l44.292-4.112a4.476 4.476 0 0 0-.908-2.18l-44.08 3.733ZM93.442 20.09c.225.363.347.78.352 1.206l2.447-.236a2.893 2.893 0 0 0-.305-.97h-2.494Z" opacity=".3"/><path fill="#FF5252" d="m114.494 28.79-5.043-1.278-.886.475-3.418-1.218s-.547-3.422 2.225-6.678l3.451 1.374.637.893 4.602 2.287s.491 3.04-1.568 4.145Z"/><mask id="a" width="12" height="9" x="105" y="20" maskUnits="userSpaceOnUse" style="mask-type:luminance"><path fill="#fff" d="m114.494 28.79-5.043-1.278-.886.475-3.418-1.218s-.547-3.422 2.225-6.678l3.451 1.374.637.893 4.602 2.287s.491 3.04-1.568 4.145Z"/></mask><g mask="url(#a)"><path fill="#212527" d="m114.494 28.79-5.043-1.278-.886.475-3.418-1.218s-.547-3.422 2.225-6.678c.51.202 1.575 2.655-.663 5.891l2.042.787a3.783 3.783 0 0 0 1.423-1.172c.214-.299.367-.637.45-.996.069.581.01 1.17-.172 1.726l4.112 1.328s.994.123 1.498-2.987c0-.023.491 3.017-1.568 4.122Z" opacity=".3"/></g><path stroke="#212527" stroke-linecap="round" stroke-linejoin="round" stroke-width=".325" d="m114.494 28.79-5.043-1.278-.886.475-3.418-1.218s-.547-3.422 2.225-6.678l3.451 1.374.637.893 4.602 2.287s.491 3.04-1.568 4.145ZM105.767 26.332s2.576-2.739 1.757-5.809"/><path stroke="#212527" stroke-linecap="round" stroke-linejoin="round" stroke-width=".325" d="M109.235 26.996s2.016-2.323 1.734-4.786"/><path fill="#212527" d="m151.428 104.593-1.084 22.078c-5.793-.089-14.072-.202-22.852-.252-2.076-1.819-4.132-11.407-4.921-14.384-.789-2.978.832-12.065.832-12.065s-1.27-1.228-1.532-2.071c-.262-.843.697-2.101.697-2.101l-.521-2.888-1.051-.796-.962-1.185c-2.181-.906-2.622-2.124-2.622-2.124l9.227-2.111 24.789 17.899Z" opacity=".3"/><path fill="#FFE0C4" d="M138.331 158s-3.554-29.742-5.388-34.774c-1.834-5.031-4.251-21.663-4.251-21.663s5.584-.448 7.275-.464c1.691-.017 3.876-1.637 3.876-1.637-.186.332-.607.126-.918-1.905-.209-1.357-2.275-1.772-2.275-1.772s-4.957.372-9.138-.19a5.18 5.18 0 0 1-3.114 0c-1.522-.554-1.83-1.148-.994-1.954 0 0-1.184-1.55 2.861-3.75 0 0-2.689-2.42-1.376-3.984 1.313-1.563 4.427-3.123 4.427-3.123s.129-1.178.699-1.487c.57-.308 3.674-1.576 5.378-2.758 1.705-1.181 2.447-1.092 5.597-1.181 3.15-.09 6.997-.873 8.439-.22 1.121.512 1.641 2.516 1.641 2.516 1.048.332 1.154 2.045 1.22 2.466.309 1.882 2.474 9.682 3.436 11.04.961 1.357 1.528 3.72 1.356 4.945-.173 1.224-.614 2.655-1.051 5.164-.438 2.509-1.923 11.162-2.653 13.655-.729 2.492-1.137 6.827-.746 8.928l11.055 26.33"/><path stroke="#212527" stroke-linecap="round" stroke-linejoin="round" stroke-width=".325" d="M138.331 158s-3.554-29.742-5.388-34.774c-1.834-5.031-4.251-21.663-4.251-21.663s5.584-.448 7.275-.464c1.691-.017 3.876-1.637 3.876-1.637-.186.332-.607.126-.918-1.905-.209-1.357-2.275-1.772-2.275-1.772s-4.957.372-9.138-.19a5.18 5.18 0 0 1-3.114 0c-1.522-.554-1.83-1.148-.994-1.954 0 0-1.184-1.55 2.861-3.75 0 0-2.689-2.42-1.376-3.984 1.313-1.563 4.427-3.123 4.427-3.123s.129-1.178.699-1.487c.57-.308 3.674-1.576 5.378-2.758 1.705-1.181 2.447-1.092 5.597-1.181 3.15-.09 6.997-.873 8.439-.22 1.121.512 1.641 2.516 1.641 2.516 1.048.332 1.154 2.045 1.22 2.466.309 1.882 2.474 9.682 3.436 11.04.961 1.357 1.528 3.72 1.356 4.945-.173 1.224-.614 2.655-1.051 5.164-.438 2.509-1.924 11.162-2.653 13.655-.729 2.492-1.137 6.827-.746 8.928l11.055 26.33"/><path stroke="#212527" stroke-linecap="round" stroke-linejoin="round" stroke-width=".325" d="M123.404 93.64s.872 1.182 3.889.701 6.632-3.502 6.632-3.502l2.165-.919s2.755.305 3.76-.176"/><path stroke="#212527" stroke-linecap="round" stroke-linejoin="round" stroke-width=".325" d="M138.308 90.013s1.797 1.925 3.239 2.36M139.843 99.462c1.224-.79 2.842-2.987 4.327-3.153"/><path stroke="#212527" stroke-linecap="round" stroke-linejoin="round" stroke-width=".325" d="M139.595 96.79c.663-2.194 2.652-4.42 2.652-4.42.328-.73.738-1.42 1.224-2.055a3.475 3.475 0 0 1 2.099-1.444s-1.738-4.925-1.224-5.911M136.65 95.784s1.349-.425 1.658-1.328M136.345 93.946s-.083 1.4-2.185 1.838M136.083 89.92s1.045-.694 1.396-1.398M129.315 82.784s-.374 1.052 1.191 1.49c1.565.438 5.763-.043 7.51-1.49 0 0 .431-1.225.302-2.012"/><path stroke="#212527" stroke-linecap="round" stroke-linejoin="round" stroke-width=".325" d="M137.777 82.96s5.127-.176 5.521-.176c.395 0 1.966-.83 2.271-1.706M145.563 88.872s1.154.394 1.953.222M143.003 96.79s-.186-1.941 1.167-4.69M151.061 79.655c.696 2.708 1.767 11.616 2.49 13.302.723 1.687.809 2.26.285 3.834-.524 1.573-1.369 5.383-1.369 5.383M152.608 125.858c-.567-1.792-.915-4.155-.699-5.251"/><path fill="#212527" d="M119.368 87.732s-1.452.272-1.943 1.059c0 0 .428.663 2.182.488 1.754-.176-.239-1.547-.239-1.547Z"/><path fill="#FF5252" d="m124.541 84.99 41.013-6.093.523 7.325-41.188 4.092-1.923-.87-3.15.08a1.696 1.696 0 0 1-.308-2.144l3.242-.697 1.791-1.693Z"/><mask id="b" width="48" height="13" x="119" y="78" maskUnits="userSpaceOnUse" style="mask-type:luminance"><path fill="#fff" d="m124.541 84.99 41.013-6.093.523 7.325-41.188 4.092-1.923-.87-3.15.08a1.696 1.696 0 0 1-.308-2.144l3.242-.697 1.791-1.693Z"/></mask><g fill="#212527" mask="url(#b)"><path d="m131.593 85.365 16.911-2.4a1.272 1.272 0 0 1 1.296.648c.083.151.135.317.153.488l.033.332a1.275 1.275 0 0 1-1.114 1.397l-16.94 2.061a1.272 1.272 0 0 1-1.155-2.051c.201-.257.494-.427.816-.475Z"/><path d="m166.077 86.223-41.188 4.092-1.924-.87-3.15.08a1.651 1.651 0 0 1-.397-.541l3.315-.113 1.459.133 5.733-.481 1.678-3.15s1.472-.186 2.653 1.311c1.18 1.497 1.837 1.304 1.837 1.304l28.203-2.954.332-.332s-1.137-2.582 0-4.69c.285-.527.613-.74.945-.736l.504 6.947Z" opacity=".3"/></g><path stroke="#212527" stroke-linecap="round" stroke-linejoin="round" stroke-width=".325" d="m124.541 84.99 41.013-6.093.523 7.325-41.188 4.092-1.923-.87-3.15.08a1.696 1.696 0 0 1-.308-2.144l3.242-.697 1.791-1.693Z"/><path fill="#FF5252" d="M165.553 78.898c2.842-.225 3.452 7.037.524 7.325-2.802.28-3.408-7.092-.524-7.325Z"/><mask id="c" width="6" height="9" x="163" y="78" maskUnits="userSpaceOnUse" style="mask-type:luminance"><path fill="#fff" d="M165.554 78.898c2.842-.225 3.452 7.037.524 7.325-2.802.28-3.409-7.092-.524-7.325Z"/></mask><g mask="url(#c)"><path fill="#212527" d="M166.078 86.223c-.766.076-1.37-.421-1.781-1.188l.332-.332s-1.137-2.582 0-4.69c.285-.528.613-.74.945-.737.995 0 2.009 1.925 1.966 2.964l.431.107c.156 1.822-.421 3.73-1.893 3.876Z" opacity=".3"/></g><path stroke="#212527" stroke-linecap="round" stroke-linejoin="round" stroke-width=".325" d="M165.553 78.898c2.842-.225 3.452 7.037.524 7.325-2.802.28-3.408-7.092-.524-7.325ZM124.541 84.99s-.813 1.02-.59 2.96c.074.864.4 1.685.938 2.364M122.75 86.694a3.604 3.604 0 0 0 .216 2.761"/><path stroke="#212527" stroke-linecap="round" stroke-linejoin="round" stroke-width=".325" d="M164.28 86.402c-2.802.292-3.346-6.774-.481-7.242"/><path stroke="#212527" stroke-linecap="round" stroke-linejoin="round" stroke-width=".325" d="M165.61 79.356c2.251-.196 2.732 6.08.414 6.333-2.224.239-2.695-6.134-.414-6.333Z"/><path stroke="#212527" stroke-linecap="round" stroke-linejoin="round" stroke-width=".325" d="M165.616 79.804s1.174.435 1.383 2.57c.209 2.133-.995 2.794-.995 2.794"/><path fill="#FFE0C4" d="M139.843 101.869s-2.984.176-3.316 0c-.331-.176-2.188-3.678-2.274-4.77-.086-1.092-.262-4.597-.348-6.784-.087-2.187-.087-5.602-4.198-4.876-1.837.332-2.145 2.065-2.756 5.975-.61 3.91-.043 4.945-.48 9.937-.438 4.992.086 6.97 1.137 9.482 1.051 2.513 1.439 8.899 4.238 11.262 2.798 2.363 3.896 6.917 3.896 6.917"/><path stroke="#212527" stroke-linecap="round" stroke-linejoin="round" stroke-width=".325" d="M139.843 101.869s-2.984.176-3.316 0c-.331-.176-2.188-3.678-2.274-4.77-.086-1.092-.262-4.597-.348-6.784-.087-2.187-.087-5.602-4.198-4.876-1.837.332-2.145 2.065-2.756 5.975-.61 3.91-.043 4.945-.48 9.937-.438 4.992.086 6.97 1.137 9.482 1.051 2.513 1.439 8.899 4.238 11.262 2.798 2.363 3.896 6.917 3.896 6.917"/><path stroke="#212527" stroke-linecap="round" stroke-linejoin="round" stroke-width=".325" d="M134.246 97.099s-.282-.09-.448-1.796a3.121 3.121 0 0 0-1.608-2.406M128.344 92.897s-1.221.262-1.705 1.968"/><path fill="#212527" d="m46.855 131.995 3.509-3.843v-.996l2.689-2.443s3.269 1.135 4.827 5.118l-2.845 2.387-1.084.139-4.188 2.987s-2.907-1.005-2.907-3.349Z"/><path stroke="#fff" stroke-linecap="round" stroke-linejoin="round" stroke-width=".325" d="M53.15 125.447s1.196 3.568 4.287 4.291M50.92 128.205s1.088 2.871 3.4 3.79" opacity=".3"/></svg>