<svg width="100" height="100" viewBox="0 0 100 100" fill="none" xmlns="http://www.w3.org/2000/svg">
<mask id="mask0" mask-type="alpha" maskUnits="userSpaceOnUse" x="0" y="0" width="100" height="100">
<rect width="100" height="100" fill="#C4C4C4"/>
</mask>
<g mask="url(#mask0)">
<path d="M61.0399 75.7005C62.0427 74.7636 75.1821 67.8076 76.3066 67.0036C76.8748 66.5773 84.3444 60.49 85.6591 62.049C87.8429 62.5867 82.2562 69.8068 80.0587 72.2511C70.6289 82.7456 63.1918 84.3114 58.901 84.3873C56.9859 84.4304 34.9834 70.314 34.2484 54.4857C34.1433 52.1951 36.2803 49.7874 38.7404 49.6211C40.7764 49.5048 45.168 50.4832 46.546 52.8299C46.5826 52.8904 60.0432 74.9404 61.0399 75.7005Z" fill="white"/>
<path d="M61.526 76.0262C62.8192 74.9549 64.5499 74.1972 65.9894 73.3678C68.2637 72.0749 70.5746 70.8424 72.8974 69.5613C76.1155 67.7802 78.8348 65.5159 81.9797 63.6137C82.645 63.2113 84.2167 62.0542 85.0663 62.3663C86.2437 62.8107 85.7593 64.3721 85.362 65.1493C84.0612 67.5055 81.7224 69.6755 79.9356 71.7061C75.4324 76.8254 69.6801 81.7914 62.8977 83.4156C61.5292 83.7477 59.8821 84.1657 58.5352 83.7826C57.2003 83.3509 55.8632 82.3011 54.6604 81.5417C50.2862 78.6117 46.2615 75.0985 42.8169 71.1106C39.0072 66.724 35.6187 61.463 35.0159 55.5498C34.7906 53.5384 35.438 51.536 37.3741 50.5715C39.2011 49.6317 41.8097 50.3255 43.5702 51.1193C45.1851 51.8772 45.9525 52.9412 46.8424 54.3441C49.4149 58.5291 51.9874 62.7141 54.5719 66.8505C55.8642 68.9187 57.1564 70.987 58.5091 73.0186C59.1429 73.9982 59.7655 75.2324 60.6898 76.0777C61.1519 76.5003 62.1315 75.8665 61.5477 75.3109C60.5383 74.3933 59.7933 72.8201 59.0983 71.671C57.5627 69.337 56.0995 66.9178 54.6244 64.5472C52.1862 60.6527 49.9295 56.6484 47.3704 52.8271C44.7747 48.9452 37.0473 47.2998 34.3972 52.0003C33.0121 54.4902 34.1153 57.9531 34.9849 60.4834C36.0867 63.5342 37.7574 66.3647 39.694 68.9519C43.3356 73.8119 47.9568 78.0381 52.9149 81.5236C54.4095 82.5608 55.9893 83.6704 57.7012 84.4522C59.0003 85.0295 60.224 84.8675 61.6172 84.6444C68.3047 83.6146 74.0958 79.3272 78.758 74.6074C81.1615 72.1624 83.6362 69.5886 85.4806 66.6971C86.2161 65.5914 87.8444 62.9989 86.5066 61.743C84.9619 60.2818 82.0724 62.4012 80.7904 63.2179C78.9521 64.4124 77.2968 65.9092 75.4219 67.0432C72.7489 68.7012 69.8811 70.1054 67.0864 71.6305C65.054 72.7772 62.5968 73.7678 60.772 75.3258C60.0104 75.9104 61.0063 76.4644 61.526 76.0262Z" fill="#212527"/>
<path d="M57.1474 70.3457C56.6645 70.7101 56.7621 70.7011 56.5096 70.8966C56.071 71.2078 54.8975 72.3494 54.6007 72.5982C54.3482 72.7938 48.9065 78.5855 48.8098 79.1356C48.6692 80.0096 49.6837 79.2762 50.1941 79.475C50.984 79.7709 49.8154 81.2319 51.039 80.8973C51.398 80.7903 51.473 80.5374 51.9346 80.7407C52.4761 81.0104 52.024 81.1752 52.1576 81.5564C52.3224 82.0085 52.6503 81.8306 53.0004 81.6261C53.4213 81.3904 53.4299 81.2174 53.7398 80.8443C54.2001 80.236 54.7936 79.7384 55.2761 79.1034C56.2409 77.8335 57.5346 76.9267 58.686 75.8117C58.9339 75.5674 59.1864 75.3719 59.4033 75.0567C59.5758 74.7947 59.8238 74.5504 60.0451 74.284C60.4657 73.7777 61.0637 73.3288 61.2047 72.7254C60.8985 72.6062 60.5128 72.691 60.198 72.7448C59.9541 72.7673 59.3737 73.1408 59.1162 73.017C59.0314 72.6313 59.3281 72.3824 59.6069 71.9385C59.6466 71.8364 60.0315 71.2105 59.9958 71.0908C59.8979 70.8293 58.8653 71.3675 58.6567 71.2392C58.0307 70.8543 59.5814 69.8008 58.8312 69.4028" fill="white"/>
<path d="M56.9428 69.9955C54.9495 71.5819 53.2005 73.4163 51.4827 75.3216C50.9027 75.9656 47.253 79.0581 48.9132 79.9869C49.2505 80.1771 49.485 79.7864 49.8313 80.0742C50.2577 80.4283 49.8408 80.4423 50.0453 80.7923C50.2233 81.1202 50.188 81.2711 50.5918 81.3813C50.8447 81.4563 51.2345 81.1497 51.3853 81.1849C51.8912 81.3349 51.3944 81.2825 51.6698 81.6014C51.8875 81.8272 51.8924 82.1466 52.2696 82.2347C52.8463 82.3535 53.3378 81.8161 53.6476 81.4431C54.6305 80.3683 55.4536 79.1607 56.5164 78.1522C58.0974 76.6286 60.5342 75.0503 61.3736 72.9557C61.4531 72.7515 61.3949 72.388 61.1199 72.3396C60.2992 72.2433 59.7631 72.5635 58.956 72.6135C59.0892 72.7242 59.2269 72.8836 59.3602 72.9943C59.4036 72.3999 60.0856 71.7957 60.2221 71.1435C60.2528 70.9439 60.1905 70.8021 60.0307 70.6693C59.822 70.541 59.6757 70.5545 59.4318 70.5771C58.7489 70.6402 58.8383 71.0747 59.0411 70.3426C59.2133 69.8101 59.4256 69.4461 58.9193 69.0256C58.5197 68.6936 58.0151 69.3552 58.3881 69.6651C58.7612 69.9749 57.3171 71.117 58.4177 71.581C58.6219 71.6605 59.4909 71.4817 59.3486 71.2735C59.3175 71.2026 58.6014 72.7693 58.5973 72.991C58.5932 73.2128 58.8064 73.3899 59.0015 73.3718C59.6889 73.3574 60.1939 72.9664 60.9658 73.0672C60.8723 72.8544 60.8055 72.6638 60.712 72.4511C59.846 74.5236 57.4489 75.9998 55.9167 77.519C55.2613 78.1453 54.6903 78.8869 54.0882 79.5575C53.8005 79.9039 53.4599 80.4765 53.1143 80.7299C51.5993 81.9031 52.7643 80.9344 52.449 80.7176C52.267 80.6114 52.2355 80.27 51.9292 80.1507C51.521 79.9917 50.9848 80.3119 50.7672 80.086C50.6294 79.9266 50.8061 79.4429 50.6105 79.1904C50.3884 78.9157 50.1088 78.8186 49.7895 78.8235C49.2218 78.8022 49.023 79.3126 49.2927 78.7711C49.4562 78.4116 49.8903 78.0517 50.1559 77.7319C51.0679 76.6883 51.9844 75.6934 52.9231 74.6719C54.2867 73.1929 55.7082 71.8069 57.263 70.5317C57.7417 70.389 57.3769 69.6356 56.9428 69.9955Z" fill="#212527"/>
<path d="M56.8226 72.6876C56.0917 73.2964 55.3297 73.8342 54.5989 74.4429C53.7972 75.0828 53.1065 75.86 52.358 76.5442C52.358 76.5442 53.0323 76.654 53.1918 76.5163C53.9669 75.8543 54.6575 75.077 55.4327 74.415C56.1635 73.8063 56.9255 73.2684 57.6563 72.6597C57.6297 72.6376 57.0042 72.5232 56.8226 72.6876Z" fill="#212527"/>
<path d="M53.3869 79.155C53.4 79.0308 53.6037 78.8397 53.6923 78.7332C53.8251 78.5733 53.9579 78.4134 54.1394 78.2491C54.2989 78.1113 54.4005 77.8805 54.2583 77.6723C54.1427 77.4862 53.8455 77.4645 53.6861 77.6022C53.4336 77.7978 53.2122 78.0642 52.9909 78.3307C52.8138 78.5438 52.6146 78.7836 52.5663 79.0587C52.5183 79.6043 53.3078 79.6296 53.3869 79.155Z" fill="#212527"/>
<path d="M82.7522 62.9433C84.7182 61.9815 82.4304 59.2607 84.8822 57.2658C85.2173 56.7495 85.7673 56.3916 86.3174 56.0337C86.7365 55.761 87.178 55.8093 87.6391 55.6584C87.9522 55.5666 88.2141 55.3962 88.5521 55.4C88.9424 55.3696 89.3511 55.2529 89.7324 55.2658C90.0442 55.2866 90.9126 55.3551 91.2271 55.9461C91.3985 56.2682 91.5238 56.7602 91.5127 56.9809C91.4894 57.4441 91.7744 58.6224 91.7914 58.9671C91.841 59.9697 92.0941 62.3572 91.5309 63.4714C91.2637 64.0002 89.8751 66.3212 89.1917 66.1356C86.2694 65.3416 84.9744 66.2582 84.9993 66.3538" fill="white"/>
<path d="M89.142 66.1458C88.4253 66.3751 88.1603 66.3751 87.3563 66.2073L86.6515 66.1327C86.6515 66.1327 85.9963 66.0291 85.3151 66.8545C85.0377 67.1907 84.3332 66.4561 84.7295 66.0563C85.1258 65.6565 85.4164 65.4086 85.7591 65.3606C86.1018 65.3125 86.6506 65.34 86.6506 65.34L87.5374 65.4902L87.54 65.4905C88.2292 65.5701 88.3699 65.5863 88.9873 65.3642C89.5767 65.1538 90.4357 64.6964 90.7421 64.1296L92.6672 62.18L93.1785 62.6878L91.3467 64.6909C90.9368 65.3343 89.83 65.9283 89.142 66.1458Z" fill="#212527"/>
<path d="M92.4299 45.645C90.1109 60.5712 66.8783 56.8627 69.2939 42.2128C69.3066 42.1306 69.3329 42.0549 69.371 41.9855C69.3726 41.9802 69.3742 41.9749 69.3758 41.9696C71.2136 35.6287 76.9232 31.7021 83.5906 32.9728C89.252 34.0942 93.3081 39.9017 92.4299 45.645Z" fill="white"/>
<path d="M83.7591 41.0377C83.7591 41.498 83.6552 41.9285 83.4399 42.3294C83.2283 42.7228 82.8423 43.1682 82.2781 43.673C81.7362 44.1518 81.4022 44.5156 81.2723 44.768C81.1461 45.0204 81.083 45.269 81.083 45.5214C81.083 45.5882 81.0867 45.655 81.0941 45.7219C81.1349 46.1301 80.8083 46.4828 80.3963 46.4828L80.3815 46.4828C80.0363 46.4828 79.7356 46.2304 79.6911 45.8852C79.6726 45.7367 79.6614 45.5808 79.6614 45.4286C79.6614 45.0575 79.7505 44.7049 79.9212 44.3745C80.0957 44.0405 80.4186 43.6582 80.8826 43.2313C81.4356 42.7228 81.7808 42.3368 81.9218 42.0659C82.0592 41.7949 82.1297 41.5277 82.1297 41.2567C82.1297 40.8447 81.9849 40.5144 81.6917 40.2731C81.4022 40.0319 81.031 39.9094 80.5819 39.9094C80.0994 39.9094 79.6503 40.0133 79.2309 40.2212C78.7966 40.4327 78.2918 40.1172 78.2918 39.6347C78.2918 39.5122 78.3289 39.3935 78.3883 39.2932C78.4514 39.193 78.5405 39.1077 78.6481 39.052C79.3274 38.7068 80.04 38.5323 80.7935 38.5323C81.688 38.5323 82.4043 38.755 82.9425 39.1967C83.4881 39.6347 83.7591 40.2471 83.7591 41.0377Z" fill="#212527"/>
<path d="M81.6806 48.6986C81.6806 48.9696 81.5804 49.1997 81.3799 49.389C81.1832 49.5746 80.9531 49.6674 80.6895 49.6674C80.3778 49.6674 80.1217 49.5709 79.9212 49.3816C79.7208 49.1886 79.6206 48.9584 79.6206 48.6986C79.6206 48.4277 79.7208 48.1975 79.9212 48.0082C80.1254 47.8115 80.3703 47.715 80.6524 47.715C80.9234 47.715 81.1609 47.8078 81.3651 47.9934C81.5766 48.179 81.6806 48.4165 81.6806 48.6986Z" fill="#212527"/>
<path d="M69.2939 42.2128C66.8783 56.8627 90.1109 60.5712 92.4299 45.645C93.3081 39.9017 89.252 34.0942 83.5906 32.9728C76.9232 31.7021 71.2136 35.6287 69.3758 41.9696C69.0151 43.1209 72.0011 43.3413 72.3288 42.3684C73.8548 37.114 79.1307 31.7415 85.0277 35.3796C87.8791 37.1253 89.8294 41.5465 89.4941 44.9541C88.875 50.8931 83.1444 56.3291 77.1495 52.8206C73.4231 50.6176 71.7319 46.392 72.3777 42.3036C72.511 41.184 69.4762 41.0285 69.2939 42.2128Z" fill="#212527"/>
<path d="M85.2778 54.1763C86.3739 56.6307 89.2322 62.9275 90.2408 65.3856C90.6942 66.0531 91.4046 66.0666 91.8117 65.6621C92.3166 65.128 92.5464 64.2847 92.2727 63.5696C91.3392 61.0345 88.2149 54.4614 87.1836 52.0558C86.4736 50.7064 84.778 53.0872 85.2778 54.1763Z" fill="#212527"/>
<path d="M83.6035 60.7889C82.6532 59.2745 84.2296 57.6248 84.6663 56.7855C84.9415 56.2393 85.4431 55.8162 85.9448 55.3931C86.327 55.0708 86.7639 55.0556 87.1996 54.8451C87.4965 54.7124 87.7353 54.511 88.0664 54.4673C88.4452 54.3833 88.8332 54.2131 89.2075 54.1722C89.5146 54.1486 90.6194 54.1982 90.5649 54.7152C90.5422 54.9307 90.1122 55.2933 89.9643 55.4573C89.7402 55.7248 89.5821 55.7796 89.3 55.9783C88.7835 56.3354 88.3092 56.5 87.7244 56.6791C87.5902 56.7139 87.5472 59.8548 86.2579 61.0926C85.911 61.4256 85.0859 61.4928 83.934 61.3009" fill="white"/>
<path d="M85.0369 56.7402C84.3324 57.6013 83.5073 58.7724 83.886 60.1579C83.886 60.1579 83.9317 60.525 83.9672 60.7769C84.0026 61.0288 84.0547 61.201 84.0288 61.3865C83.9952 61.6275 83.9712 61.745 83.7924 61.9212C83.0632 62.6397 82.8041 63.1418 82.2601 63.0518C81.9626 63.0026 81.6865 62.7675 81.8431 62.5098C81.9498 62.3344 82.4291 62.0699 82.9078 61.714C83.2051 61.4929 83.3243 61.5071 83.2892 61.1607C82.7208 58.1509 83.8864 57.0241 85.0976 55.6974C85.8159 54.901 90.6301 52.1752 90.8638 54.3426C90.9565 55.1796 89.91 55.9218 89.3042 56.3184C89.0465 56.4976 88.4085 56.8145 87.998 56.9026C87.7917 57.1911 87.7343 57.3907 87.6747 57.7079C87.5902 58.1584 87.7431 58.2635 87.7035 58.9916C87.5249 59.9431 87.0498 60.3374 86.9456 60.4194C86.5626 60.7208 86.1298 60.645 86.1856 60.3503C86.2163 60.1883 86.6515 59.996 86.8152 59.7054C86.9261 59.4975 87.0624 59.3493 87.093 59.0947C87.1915 58.6407 87.0395 58.349 87.0609 58.1221C87.0884 57.8305 87.1352 56.9559 87.5139 56.484C87.7681 56.1552 88.1504 56.0209 88.56 55.828C89.08 55.5758 90.3092 54.9744 90.1637 54.6756C89.463 53.502 85.3756 56.3088 85.0369 56.7402Z" fill="#212527"/>
<path d="M90.9098 56.0371C90.7617 56.1001 89.4662 56.5389 89.341 56.6903C89.1393 56.9093 88.4718 58.5044 88.4345 58.6325C88.355 58.9608 88.2804 59.2169 88.3882 59.5427C88.4502 59.6916 90.2662 65.2577 92.9017 63.2813C93.0383 63.1741 93.344 61.1789 93.2983 61.0021C93.1495 60.4273 92.9291 59.8479 92.7642 59.301C92.5992 58.7542 91.9351 57.2767 91.8177 57.0953C91.7671 56.9906 90.9327 56.1255 90.9098 56.0371Z" fill="white"/>
<path fill-rule="evenodd" clip-rule="evenodd" d="M90.6982 55.6247L90.7481 55.6065C90.7992 55.6017 90.8469 55.6019 90.8913 55.6064C91.0056 55.6174 91.1329 55.664 91.2593 55.7554C91.3767 55.9369 91.5283 56.0915 91.6799 56.2461C91.8314 56.4008 91.983 56.5554 92.1004 56.7369C92.3248 57.0836 92.4793 57.4648 92.63 57.8369C92.6634 57.9191 92.6965 58.0009 92.7302 58.0817C92.7828 58.21 92.8375 58.3401 92.8928 58.4717C93.3061 59.4543 93.755 60.5215 93.634 61.5747C93.6177 61.6998 93.6044 61.8259 93.5911 61.9515C93.5082 62.7347 93.4278 63.4953 92.648 63.8451C91.8751 64.216 91.1081 64.0654 90.4206 63.5866C89.2948 62.7753 88.0473 60.7677 87.9286 59.3106C87.866 58.5239 88.4053 57.341 88.8345 56.7307C89.2405 56.149 89.9081 55.909 90.5592 55.6749L90.6684 55.6355C90.6781 55.6316 90.688 55.628 90.6982 55.6247ZM90.7701 56.4526L90.6936 56.4792C90.1983 56.6513 89.7495 56.8072 89.4456 57.2771C89.267 57.5518 89.0711 57.9219 88.934 58.3058C89.1151 58.2468 89.3039 58.2021 89.4809 58.1602C89.5752 58.1378 89.6662 58.1163 89.7508 58.0938C89.9844 58.0317 90.2138 57.9529 90.4421 57.8745C90.8396 57.738 91.2343 57.6024 91.6436 57.5575C91.61 57.4982 91.5753 57.4397 91.5393 57.3822C91.3844 57.1283 91.1925 56.919 91.0011 56.7103C90.9232 56.6253 90.8453 56.5404 90.7701 56.4526ZM91.9764 58.2466C91.9117 58.3184 91.8203 58.3689 91.7032 58.3782C91.349 58.4243 90.9754 58.5624 90.6159 58.6953C90.445 58.7585 90.2773 58.8205 90.1163 58.8709C89.8689 58.913 89.6052 58.9831 89.3415 59.0532C89.3048 59.0629 89.2638 59.0702 89.2218 59.0776C89.1128 59.0968 88.9967 59.1173 88.9298 59.1862C88.8758 59.2339 88.8181 59.2638 88.7599 59.2789C88.7624 59.3179 88.7664 59.3562 88.772 59.3936C88.8098 59.5905 88.8703 59.7993 88.9484 60.0135C89.0128 59.9151 89.1176 59.8421 89.261 59.8307C89.5774 59.8113 89.8968 59.7486 90.2185 59.6854C90.4843 59.6332 90.7518 59.5807 91.0206 59.552L91.1829 59.5308C91.5735 59.4795 91.9836 59.4257 92.3827 59.3962C92.2611 59.0098 92.1316 58.6199 91.9764 58.2466ZM89.8592 61.7264C89.6283 61.3946 89.4091 61.0275 89.2262 60.6573C89.2383 60.6577 89.2507 60.6576 89.2634 60.657C89.8138 60.6363 90.3595 60.5341 90.9033 60.4322C91.4829 60.3237 92.0602 60.2156 92.6385 60.207C92.7526 60.5809 92.8442 61.0023 92.8654 61.4241C92.2603 61.4433 91.6829 61.4788 91.117 61.5584C91.0825 61.5639 91.0478 61.5696 91.0129 61.5752C90.6291 61.6373 90.2207 61.7033 89.8592 61.7264ZM90.4831 62.5024C90.5087 62.5294 90.5342 62.5555 90.5596 62.5808C91.099 63.1227 92.161 63.5965 92.6371 62.7139C92.7099 62.5664 92.7633 62.4111 92.8006 62.2508C92.1941 62.256 91.637 62.2927 91.0755 62.3964C90.8827 62.4369 90.6842 62.474 90.4831 62.5024Z" fill="#212527"/>
<path d="M84.5184 30.5095C85.7642 30.3487 87.3854 31.3837 88.3455 32.0069C89.7022 32.8772 90.9409 33.9778 91.707 35.4613C91.8549 35.7116 92.8362 35.386 92.791 35.2756C91.8257 33.4719 90.1903 32.1242 88.3886 31.1856C87.2948 30.6247 85.9989 30.0328 84.7531 30.1936C84.3533 30.2359 83.7765 30.6235 84.5184 30.5095Z" fill="#212527"/>
<path d="M84.0486 27.7677C86.7298 27.0197 89.3607 28.3544 91.4271 29.9958C92.5179 30.8461 94.7509 32.6165 94.9321 34.1345C94.9852 34.598 96.012 34.921 95.965 34.417C95.754 32.4184 93.2223 30.4366 91.7581 29.3222C89.3867 27.5098 86.3794 26.2002 83.3732 27.0432C82.8102 27.2053 83.6365 27.8908 84.0486 27.7677Z" fill="#212527"/>
<path d="M65.0941 47.6012C65.0936 50.1092 66.3618 52.3487 67.9829 54.2041C69.1632 55.5478 70.7906 57.2587 72.5832 57.72C73.0471 57.8389 73.4215 56.836 72.8945 56.7027C71.3542 56.2989 69.9096 54.7756 68.8938 53.6419C67.3702 51.9414 65.9655 49.7769 65.982 47.4318C65.9324 46.7172 65.1012 47.0455 65.0941 47.6012Z" fill="#212527"/>
<path d="M63.4914 51.3767C64.3302 54.6862 66.5015 57.3304 69.4256 59.058C69.9503 59.3765 70.2168 58.3225 69.7369 58.0407C67.1809 56.5032 65.115 54.0952 64.3529 51.1482C64.1852 50.4863 63.3277 50.7555 63.4914 51.3767Z" fill="#212527"/>
<path d="M30.7475 38.0258C30.7475 38.0682 30.2383 40.5718 30.2383 40.9961C30.2383 41.5053 27.9893 45.1971 27.565 45.282C26.7163 45.4941 28.9228 49.2283 31.8932 50.6287C34.1422 51.6895 37.4096 52.326 39.7859 51.3076C42.7987 50.0346 41.2711 47.1915 40.8892 45.1971C40.8468 44.8576 40.2103 41.9297 40.2103 41.8448C40.1254 41.4205 30.7475 38.3652 30.7475 38.0258Z" fill="white"/>
<path d="M41.1861 44.3062C40.889 43.4151 40.7617 42.5239 40.7617 41.5904C40.7617 41.3782 39.7009 41.3358 39.7009 41.4631C39.7009 42.3966 39.8706 43.2877 40.1252 44.1789C40.2101 44.4759 41.1861 44.391 41.1861 44.3062Z" fill="#212527"/>
<path d="M30.1534 38.1948C30.6202 40.5711 28.7531 43.202 27.3952 44.8994C27.2679 45.0267 28.2439 45.2388 28.4136 45.0267C29.7715 43.2869 31.681 40.6135 31.2143 38.2372C31.1294 37.9826 30.111 38.0251 30.1534 38.1948Z" fill="#212527"/>
<path d="M34.0997 39.3411C36.6033 40.9961 39.701 41.4204 40.1253 41.4628C40.9316 41.5477 41.6954 41.2931 42.5016 41.1658C43.9868 40.8688 50.7763 36.5829 50.9884 31.8303C51.0309 30.6846 50.3095 27.7991 50.3944 27.4596C50.5217 26.9504 51.4128 22.2827 51.4128 21.6037C51.4128 20.458 51.625 17.1482 51.5825 16.639C51.5825 16.3843 51.4552 8.53406 48.0181 6.53967C44.5809 4.54527 41.4832 1.91436 32.657 3.99363C25.7402 5.60612 24.2126 7.89755 22.8547 11.8863C21.4968 15.8751 22.7699 23.683 23.4064 24.4044C24.0429 25.1257 21.9636 23.5981 21.7514 25.3804C21.5393 27.1626 22.1333 29.7511 23.3639 30.4724C24.5521 31.1938 24.8067 31.2787 25.1886 31.1089C25.5705 30.9392 25.5281 30.0905 25.5281 30.0905C25.5281 30.0905 25.6129 31.4484 26.3343 32.5517C27.0557 33.655 28.8803 36.8375 30.408 37.7286C31.9356 38.6198 31.4264 38.2803 31.9356 38.6198" fill="white"/>
<path d="M44.2415 40.9536C40.8892 42.7783 37.0277 41.5901 33.9725 39.723C33.5057 39.426 33.633 38.6197 34.2695 39.0441C37.5369 41.0385 41.1014 41.8447 44.4536 39.6806C47.5938 37.6437 50.9885 34.4612 50.3944 30.3875C50.2247 29.3691 49.8428 28.3083 49.9276 27.2899C49.9701 26.2714 50.352 25.2106 50.5217 24.1922C50.9885 21.6886 51.1582 19.1001 51.1158 16.5541C51.1158 14.4748 50.8187 12.3107 50.1398 10.3163C49.1214 7.38832 46.5329 5.81826 43.7747 4.71498C40.2102 3.22979 36.2215 3.69656 32.5721 4.58768C29.4745 5.30906 26.2495 6.45477 24.5521 9.34028C22.8548 12.1834 22.6001 15.5356 22.8123 18.7606L22.8197 18.8515C22.9447 20.3944 23.0759 22.015 23.5337 23.5132C23.661 23.8527 24.1278 24.5316 24.0005 24.8711C23.958 25.0409 23.7883 25.0833 23.661 25.0833C22.2182 24.9136 22.1334 26.4412 22.3031 27.5445C22.4304 28.181 22.6001 28.9448 22.9396 29.454C23.364 30.43 23.9156 30.6846 24.5945 30.2602C24.8428 30.2602 24.9834 30.2244 25.0398 30.1294C25.0702 30.0782 25.0762 30.0099 25.0613 29.9208C25.0189 29.3267 25.9524 29.751 25.9949 30.2178C26.1646 32.1273 27.6498 34.0369 28.7531 35.522C29.6866 36.7526 30.7899 37.3891 32.0205 38.2378C32.4873 38.5349 32.36 39.3411 31.7659 38.9592L31.6871 38.9067C30.0717 37.83 28.8614 37.0233 27.6922 35.3947C26.8156 34.1738 25.8697 32.9066 25.3658 31.4909C24.8656 31.6812 24.1288 31.4164 23.4913 31.024C21.7939 29.9632 21.1998 27.8839 21.1998 25.9744L21.2013 25.9486C21.2434 25.2329 21.2923 24.3998 21.9212 24.0224C22.0909 23.98 22.5153 23.8951 22.7275 23.98L22.7446 23.9867C22.2198 22.7347 22.0705 21.2925 21.9212 19.9488C21.4544 16.0024 21.5817 11.8439 23.7459 8.40674C26.1646 4.58768 31.5113 3.44196 35.6698 2.93275C39.7435 2.46598 43.2231 3.22979 46.7026 5.30906C48.0181 6.1153 49.2063 6.79424 50.0125 8.15213C50.9885 9.76462 51.4553 11.7166 51.7099 13.5412C52.0918 16.3419 52.0069 19.185 51.7947 21.9432C51.6674 23.5981 51.2007 25.2955 50.946 26.9504C50.6914 28.6902 51.4553 30.3027 51.4128 32C51.328 35.904 47.3816 39.2138 44.2415 40.9536Z" fill="#212527"/>
<path d="M23.661 26.5685H23.7459C23.958 26.5261 24.2551 26.6958 24.3824 26.8231C24.5097 26.908 24.6794 27.0777 24.4672 27.1202V27.5021C24.5097 27.7567 23.5337 27.3748 23.5337 27.1202C23.5337 26.9504 23.5337 26.7807 23.5761 26.611C23.5761 26.5685 23.6186 26.5685 23.661 26.5685H23.661Z" fill="#212527"/>
<path d="M37.0469 29.3589C39.742 29.3589 41.9268 27.1741 41.9268 24.479C41.9268 21.7839 39.742 19.5991 37.0469 19.5991C34.3518 19.5991 32.167 21.7839 32.167 24.479C32.167 27.1741 34.3518 29.3589 37.0469 29.3589Z" fill="white"/>
<path d="M48.5464 28.3831C51.2414 28.3831 53.4263 26.1983 53.4263 23.5032C53.4263 20.8081 51.2414 18.6233 48.5464 18.6233C45.8513 18.6233 43.6664 20.8081 43.6664 23.5032C43.6664 26.1983 45.8513 28.3831 48.5464 28.3831Z" fill="white"/>
<path fill-rule="evenodd" clip-rule="evenodd" d="M48.2493 27.8739C50.9227 28.1285 52.6625 25.9644 52.7898 23.5032C52.62 21.0845 50.7529 19.0052 48.2069 19.1749C45.9579 19.3022 44.2605 21.2542 44.303 23.5032C44.303 25.6673 46.0428 27.7042 48.2493 27.8739ZM54.012 23.2988C53.4969 16.7943 43.9035 16.7451 43.0854 22.7488C42.9638 22.7639 42.8484 22.7728 42.7331 22.7817C42.5951 22.7923 42.4572 22.8029 42.3087 22.8241C42.3087 22.8241 42.3125 22.915 42.3167 23.0435C40.7702 17.5846 31.4935 18.5391 31.5729 24.6913C31.6575 31.5474 42.21 30.7636 42.5186 24.3186C42.522 24.3018 42.5228 24.2846 42.5209 24.267C42.5228 24.2576 42.5221 24.2489 42.5192 24.2409C42.5106 24.1126 42.4985 23.9869 42.4828 23.8639C42.5677 23.8553 42.6504 23.8489 42.7331 23.8425C42.832 23.8349 42.9309 23.8273 43.0338 23.8158C43.2622 30.5501 53.6326 30.1372 54.0158 23.5087C54.0211 23.4797 54.0227 23.4496 54.0203 23.4183C54.0233 23.3748 54.0202 23.335 54.012 23.2988ZM40.3992 27.3647C40.9932 26.5584 41.2479 25.6249 41.2903 24.6065C41.2054 22.7394 40.2294 21.042 38.4896 20.2782C36.7498 19.5144 34.416 20.2782 33.44 21.9331C33.0157 22.6545 32.8035 23.5032 32.8035 24.3519C32.8459 26.0068 33.737 27.6193 35.2222 28.4679C36.8347 29.4015 39.2959 28.8923 40.3992 27.3647ZM28.7526 23.4082C29.693 23.2244 30.6565 23.0362 31.5728 23.0362V24.097C30.7714 24.097 29.9341 24.259 29.1076 24.4188C28.6649 24.5045 28.2254 24.5895 27.7962 24.6487C26.8061 24.7901 25.8159 24.8561 24.8258 24.9222C24.3307 24.9552 23.8357 24.9882 23.3406 25.0306C23.3406 25.0306 23.2982 23.9697 23.3406 23.9697C23.8357 23.9273 24.3307 23.8943 24.8258 23.8613C25.8159 23.7953 26.8061 23.7293 27.7962 23.5878C28.1104 23.5337 28.4302 23.4712 28.7526 23.4082Z" fill="#212527"/>
<path d="M38.8715 25.6671C39.4808 25.6671 39.9748 25.1732 39.9748 24.5639C39.9748 23.9545 39.4808 23.4606 38.8715 23.4606C38.2621 23.4606 37.7682 23.9545 37.7682 24.5639C37.7682 25.1732 38.2621 25.6671 38.8715 25.6671Z" fill="#212527"/>
<path d="M50.4561 24.6913C51.0654 24.6913 51.5593 24.1973 51.5593 23.588C51.5593 22.9787 51.0654 22.4847 50.4561 22.4847C49.8467 22.4847 49.3528 22.9787 49.3528 23.588C49.3528 24.1973 49.8467 24.6913 50.4561 24.6913Z" fill="#212527"/>
<path d="M43.836 28.6377C44.1331 29.2317 44.7271 29.6561 45.0666 30.2077C45.3636 30.7169 45.4485 31.1837 44.7696 31.3534C44.3877 31.4383 44.0057 31.4807 43.6663 31.608C43.2844 31.7778 43.6238 32.0748 43.9209 31.9475C44.4301 31.7353 46.085 31.7353 46.0001 30.8442C45.9153 29.8258 44.812 29.3166 44.4301 28.4679C44.3452 28.2133 43.7511 28.4255 43.836 28.6377Z" fill="#212527"/>
<path d="M43.1148 35.0027C40.5688 35.2149 37.853 35.3846 35.2645 35.3846C34.5432 35.3846 34.5432 34.3238 35.2645 34.3238C37.8106 34.3238 40.5264 34.154 43.1148 33.9418C43.7938 33.8994 43.7938 34.9178 43.1148 35.0027Z" fill="#212527"/>
<path d="M34.7554 18.1989C33.9916 18.4535 33.2702 18.7505 32.5064 19.0051C31.8699 19.2597 31.6153 18.1989 32.2094 17.9867C32.9732 17.7321 33.6946 17.435 34.4584 17.1804C35.1373 16.9258 35.3919 17.9867 34.7554 18.1989Z" fill="#212527"/>
<path d="M51.4318 17.4351C50.668 17.1381 49.9466 16.8835 49.1828 16.6289C48.5463 16.4167 48.8009 15.3983 49.4798 15.6104C50.2436 15.8651 50.965 16.1621 51.7288 16.4167C52.3653 16.6289 52.0683 17.6473 51.4318 17.4351Z" fill="#212527"/>
<path d="M23.7999 24.3565C24.394 24.3565 25.6246 24.3565 26.1762 24.3565C26.3884 24.3565 26.8127 24.4413 26.94 24.2292C27.0673 24.0594 26.5581 22.6167 26.4732 22.3196C26.3884 22.0226 26.1762 19.7736 26.1762 18.9673C26.1762 18.7127 26.0065 16.591 26.0065 16.294C26.0065 15.9121 25.2851 11.6687 28.3828 10.0138C29.0617 9.6743 29.868 9.08023 31.5653 9.08023C33.0081 9.08023 33.9416 9.2924 34.663 9.4197C36.3604 9.80161 36.4877 12.093 42.5133 11.8384C48.5389 11.5838 49.2179 8.9105 49.5573 8.27399C50.109 7.34044 52.7399 3.09704 52.5277 2.84244C52.358 2.58783 50.1514 3.56381 49.8544 3.52138C49.4725 3.47894 48.7935 1.56942 48.4116 1.48455C48.157 1.61185 46.9689 3.01217 46.7991 3.01217C46.587 3.0546 45.3564 1.48455 45.0169 1.48455C44.4228 1.48455 44.5926 2.37566 44.2955 2.6727C43.7863 2.46053 42.2163 1.39968 41.9192 1.22994C41.5373 1.10264 41.5798 1.10264 41.2827 1.48455C41.1554 1.61185 40.7311 2.29079 40.6462 2.50296C40.3916 2.6727 38.6518 1.99375 38.2699 1.73915C37.7183 1.39968 37.1242 0.975339 36.7847 1.73915C36.615 2.12106 35.7239 3.09704 35.4268 2.96974C26.6005 0.423701 25.1578 7.298 25.1578 7.298C25.1578 7.298 23.8423 7.46774 23.1634 8.44372C22.6118 9.24997 21.8904 10.0562 21.8904 12.8993C21.9752 25.8841 23.4604 23.7624 23.7999 24.3565Z" fill="#212527"/>
<path d="M8.08146 108.235C7.95416 96.3534 6.29923 88.7153 9.22718 74.9243C14.9982 48.0636 23.0182 47.0027 24.7156 45.9843C29.4682 43.1412 34.4754 48.4455 39.2704 52.5191C40.4161 53.4951 39.7796 47.4695 44.023 50.4399C48.0543 53.1981 51.9158 64.0187 53.2736 86.339C54.5467 107.047 52.9342 102.506 52.9342 107.853C52.9342 108.744 19.4962 115.279 10.5426 111.672" fill="white"/>
<path d="M8.50587 108.405C8.33613 98.3053 7.27528 88.4182 9.01508 78.4038C10.5003 69.8746 12.7493 60.624 17.417 53.198C19.1144 50.4822 21.2361 48.2332 24.1216 46.8754C24.3762 46.7481 24.6732 46.6208 24.9278 46.4935C27.8982 45.0931 30.3594 46.0267 32.9478 47.8513C34.0936 48.6576 35.1544 49.5487 36.2153 50.4822C37.0215 51.2036 37.9975 52.4766 38.9735 52.901C39.5675 53.1556 39.7373 53.2405 40.1616 52.7312C40.7557 52.0523 40.5435 50.9066 41.3922 50.3549C42.5379 49.5911 44.1504 51.0339 44.9142 51.8826C46.4418 53.5375 47.333 55.7441 48.0968 57.8658C51.1944 66.3101 52.0431 75.7305 52.6372 84.6416C52.9342 89.2245 53.2313 93.8073 53.2313 98.3902C53.2313 100.172 53.2313 101.955 52.9342 103.694C52.8069 104.543 52.5523 105.349 52.4675 106.198C52.425 106.538 52.5099 107.514 52.425 107.598C52.1704 107.895 50.9823 108.065 50.6428 108.15C44.3201 109.762 37.7429 110.738 31.2929 111.46C27.3466 111.927 23.4002 112.266 19.4114 112.309C16.4835 112.351 13.3009 112.309 10.5003 111.248C9.90619 110.993 9.99106 112.011 10.4578 112.181C12.919 113.115 15.7196 113.242 18.3506 113.242C21.9574 113.285 25.5643 113.03 29.1712 112.648C35.9182 111.969 42.6652 110.951 49.2849 109.465C50.176 109.253 52.4675 109.126 53.1464 108.32C53.6132 107.768 53.401 106.028 53.5708 105.265C54.4619 100.597 54.1648 95.8017 53.9102 91.0491C53.401 80.9498 52.7221 70.6384 49.9214 60.8786C48.903 57.2717 46.8662 50.1003 42.3257 49.2092C41.5195 49.0395 40.8406 49.2517 40.2889 49.8882C39.9919 50.2276 39.8221 50.6944 39.6524 51.0763C39.1856 52.1796 39.3129 52.1796 38.2521 51.2461C35.1968 48.5727 31.0807 44.202 26.5827 44.7537C23.9943 45.0931 20.939 47.1724 19.1992 49.0395C13.7253 54.9378 11.3489 63.8914 9.52429 71.5719C8.0391 77.7249 7.10555 83.9627 7.06312 90.2853C7.02068 96.2261 7.57232 102.167 7.65719 108.108C7.61476 108.617 8.5483 109.041 8.50587 108.405Z" fill="#212527"/>
<path d="M43.2593 62.958C43.6836 62.6185 44.1504 62.3639 44.5747 62.1093C44.8718 61.9395 45.2537 61.7274 45.5507 61.6425C46.0599 61.5576 45.8902 61.4303 45.8902 61.8547C45.8902 62.4063 44.2777 63.7218 43.8534 64.1461C43.3442 64.6553 42.7925 65.1221 42.5379 65.801C42.4106 66.0981 42.7501 66.3102 43.0047 66.2678C43.4715 66.2254 43.8534 66.0556 44.2777 65.8859C45.1688 65.4616 45.0415 65.8859 44.9142 66.6073C44.8718 66.8194 45.1264 66.9467 45.2961 66.9892C45.5083 67.0316 45.7205 67.074 45.9326 67.074C45.8053 66.9467 45.678 66.8194 45.5507 66.6921C45.4659 67.1165 45.2113 67.3711 45.0415 67.7106C44.8718 68.0925 44.8718 68.6017 44.5747 68.9411C44.1504 69.4079 45.1264 69.6625 45.4659 69.2806C45.8053 68.8987 45.7629 68.6865 45.8902 68.2198C46.1024 67.6257 46.4418 67.2013 46.5691 66.6073C46.6116 66.3951 46.357 66.2678 46.1872 66.2254C45.9751 66.1829 45.7629 66.1405 45.5507 66.1405C45.678 66.2678 45.8053 66.3951 45.9326 66.5224C46.0599 65.801 46.5691 64.9523 45.5083 64.6977C44.6596 64.4856 43.8534 65.4191 43.0471 65.4616C43.2169 65.6313 43.3442 65.7586 43.5139 65.9283C43.8958 64.9948 48.3514 61.8122 46.654 60.7938C45.5507 60.1149 43.3017 61.7698 42.4955 62.4063C41.9863 62.8731 42.835 63.2974 43.2593 62.958Z" fill="#212527"/>
<path d="M29.8926 43.6082C30.8686 41.9532 30.2321 40.3832 30.2321 40.3832C30.2321 40.3832 25.9038 42.5473 24.8005 45.7299C24.9278 46.4937 33.8814 57.7387 34.4755 58.1206C35.9182 55.2775 36.8518 51.6282 36.385 48.4032L29.8926 43.6082Z" fill="white"/>
<path d="M30.3592 43.6929C30.9109 42.5471 31.1655 41.4014 30.7411 40.1708C30.6563 39.9162 30.2744 40.0011 30.1046 40.086C28.1951 41.0619 26.2856 42.5047 25.0974 44.2869C23.9093 46.154 24.7155 46.7057 25.9037 48.2757C27.4313 50.3126 29.0013 52.3069 30.5714 54.3013C31.6323 55.6592 32.7355 57.399 34.0934 58.5023C34.348 58.7145 34.8148 58.5447 34.9421 58.2477C36.003 55.9987 36.7668 53.6224 36.9789 51.1612C37.1062 49.7185 37.3184 48.5728 36.2151 47.6816C34.2632 46.1965 32.2688 44.7537 30.2744 43.3109C29.8925 43.0139 29.0438 43.6504 29.4681 43.9475C31.1655 45.178 32.8204 46.4086 34.5178 47.6816C35.4513 48.3606 36.003 48.4879 36.003 49.676C36.0454 52.6464 35.324 55.4471 34.0086 58.1628C34.3056 58.078 34.6026 57.9931 34.8572 57.9082C33.8388 57.102 33.0326 55.829 32.2263 54.853C30.6563 52.9435 29.1711 51.0339 27.6435 49.082C27.0918 48.3182 25.3096 46.6632 25.2247 45.6873C25.1399 44.5415 27.5586 42.7169 28.3224 42.1228C28.9589 41.656 29.6379 41.2317 30.3168 40.8498C30.1046 40.8073 29.8925 40.8073 29.6803 40.7649C30.0198 41.7409 29.7652 42.7169 29.3408 43.6504C29.1711 44.1596 30.1471 44.1172 30.3592 43.6929Z" fill="#212527"/>
<path d="M36.7245 48.3608C36.6821 48.1062 39.7373 44.2872 40.3314 43.0142C40.6284 42.3777 42.0712 44.7115 42.2409 44.9237C42.7501 45.7299 43.7685 54.5138 43.2593 54.9381C43.2593 54.9381 37.4459 48.9125 36.6821 48.0638" fill="white"/>
<path d="M37.2337 48.4456C37.5731 47.0453 39.3129 45.5601 40.0767 44.3295C40.7133 43.3535 40.5011 43.1414 41.0527 44.1598C41.3498 44.7114 41.6892 45.0509 41.859 45.645C42.3682 47.1726 42.4106 48.9973 42.5803 50.5673C42.6652 51.4584 43.2593 54.0045 42.7077 54.8107C43.0047 54.7683 43.3017 54.7683 43.6412 54.7258C41.4346 52.4344 39.2281 50.1854 37.0639 47.8515C36.7669 47.5121 35.7909 47.8515 36.1728 48.2759C38.337 50.6097 40.5435 52.8587 42.7501 55.1502C42.9623 55.3623 43.4715 55.3623 43.6836 55.0653C44.4474 53.9196 43.7685 51.2463 43.6412 50.0157C43.4715 48.2759 43.429 46.1117 42.5803 44.5417C42.0711 43.6081 40.9254 41.8259 39.8221 42.8868C39.0159 43.6506 38.337 45.1358 37.658 46.0693C37.1912 46.7058 36.385 47.4696 36.1728 48.2759C36.088 48.8275 37.1488 48.87 37.2337 48.4456Z" fill="#212527"/>
<path d="M36.2576 49.761C36.3425 51.8827 36.8093 53.9195 36.7244 56.0412C36.6395 58.2054 36.3849 60.3695 36.4274 62.5336C36.4274 64.9099 36.2576 67.2438 36.2576 69.6201C36.2576 72.251 36.7244 74.8395 36.7668 77.5128C36.8517 83.1566 36.7244 88.8003 36.7244 94.444C36.7244 97.0749 36.8517 99.7058 36.6395 102.337C36.3849 105.222 36.7244 108.108 36.7244 110.993C36.7244 111.248 37.3609 111.163 37.3609 110.908C37.3609 108.023 37.0214 105.137 37.276 102.252C37.4882 99.4936 37.3609 96.7354 37.3609 93.9772C37.3609 91.1341 37.1487 88.3335 37.276 85.4904C37.4033 82.52 37.4458 79.5497 37.3609 76.5793C37.276 74.0332 36.8941 71.4872 36.8941 68.9412C36.8941 66.5649 37.0639 64.1886 37.0639 61.7698C37.0639 59.5208 37.3609 57.3143 37.4033 55.1077C37.4033 53.2406 37.0214 51.4159 36.9366 49.5488C36.8517 49.3791 36.2576 49.5064 36.2576 49.761Z" fill="#212527"/>
<path d="M38.3369 50.2279C39.1431 52.1375 39.1431 54.5138 39.1007 56.5506C39.0582 58.7147 39.2704 60.8789 39.3977 63.043C39.5674 65.7588 39.9069 68.4321 39.9069 71.1479C39.9069 73.5666 39.9069 76.0702 40.1615 78.489C40.4586 81.332 40.798 83.9205 40.3737 86.7636C39.9918 89.2248 39.6523 91.6859 39.6099 94.1895C39.525 99.4089 39.4401 104.628 40.0767 109.805C40.1191 110.102 40.7132 109.933 40.6707 109.635C39.9918 104.162 39.9069 98.4329 40.2464 92.9165C40.4161 90.4129 40.8405 87.9942 41.1375 85.533C41.4345 83.1143 40.9678 80.7804 40.7556 78.3192C40.2888 73.0574 40.5434 67.7107 40.0342 62.4489C39.8221 60.115 39.7372 57.7812 39.7372 55.4473C39.7372 53.6651 39.6099 51.7556 38.9309 50.1006C38.8036 49.8036 38.2096 49.9733 38.3369 50.2279Z" fill="#212527"/>
<path d="M38.0822 70.8508C38.0822 71.0205 38.0822 71.1902 38.0822 71.3175C38.0822 71.9116 39.143 71.9541 39.143 71.3175C39.143 71.1478 39.143 70.9781 39.143 70.8508C39.143 70.2567 38.0822 70.2143 38.0822 70.8508Z" fill="#212527"/>
<path d="M38.2943 74.7124C38.2943 74.9245 38.2943 75.1367 38.2943 75.3489C38.2943 75.6035 38.5065 75.9005 38.7611 75.943C39.0157 75.9854 39.2279 75.8581 39.2279 75.5611C39.2279 75.3489 39.2279 75.1367 39.2279 74.9245C39.2279 74.6699 39.0157 74.3729 38.7611 74.3305C38.5489 74.288 38.2943 74.4578 38.2943 74.7124Z" fill="#212527"/>
<path d="M38.4218 80.5683C38.4218 80.7805 38.4218 80.9926 38.4218 81.2048C38.4218 81.6716 39.4826 81.6292 39.4826 81.1624C39.4826 80.9502 39.4826 80.738 39.4826 80.5259C39.4826 80.0591 38.4218 80.1015 38.4218 80.5683Z" fill="#212527"/>
<path d="M38.2942 85.236C38.2942 85.4906 38.2942 85.6603 38.1669 85.9149C38.0396 86.1695 38.2942 86.4666 38.5064 86.5515C38.761 86.6788 38.9732 86.6363 39.1005 86.3817C39.2278 86.0847 39.2702 85.7876 39.2702 85.4906C39.2702 84.939 38.2942 84.5995 38.2942 85.236Z" fill="#212527"/>
<path d="M37.9124 91.3041C37.9124 91.4739 37.9124 91.6436 37.9124 91.7709C37.9124 92.0679 38.9732 91.9831 38.9732 91.6436C38.9732 91.4739 38.9732 91.3041 38.9732 91.1768C38.9732 90.8798 37.9124 90.9647 37.9124 91.3041Z" fill="#212527"/>
<path d="M37.9549 96.0991C37.9549 96.2688 37.9549 96.4386 37.9549 96.5659C37.9549 97.0751 38.9733 97.2872 38.9733 96.7356C38.9733 96.5659 38.9733 96.3961 38.9733 96.2688C38.9733 95.7596 37.9549 95.5474 37.9549 96.0991Z" fill="#212527"/>
<path d="M37.9124 65.5465C37.9124 65.7162 37.9124 65.8859 37.9124 66.0132C37.9124 66.5649 38.9732 66.7346 38.9732 66.1405C38.9732 65.9708 38.9732 65.8011 38.9732 65.6738C38.9732 65.1221 37.9124 64.91 37.9124 65.5465Z" fill="#212527"/>
<path d="M37.7851 60.6668C37.7851 60.7517 37.7427 60.7941 37.7427 60.8366C37.7003 60.9639 37.6578 61.0487 37.6154 61.176C37.5305 61.7277 38.5065 62.0247 38.6338 61.4306C38.6338 61.3458 38.7187 61.2609 38.7611 61.1336C38.8035 60.9639 38.846 60.8366 38.8035 60.6668C38.7187 60.1152 37.7003 60.0303 37.7851 60.6668Z" fill="#212527"/>
<path d="M38.0822 54.7259C38.0822 54.7683 38.0822 54.8532 38.0822 54.8956C38.0822 55.0653 38.3792 55.3199 38.5065 55.4048C38.5489 55.4472 38.846 55.7018 38.846 55.5745C38.846 55.5321 38.846 55.4472 38.846 55.4048C38.846 55.2351 38.5489 54.9805 38.4216 54.8956C38.3792 54.8532 38.0822 54.5986 38.0822 54.7259Z" fill="#212527"/>
<path d="M26.3295 67.8351C20.5314 76.7901 16.6399 84.0808 15.7486 87.9697C14.6399 92.7227 13.7967 105.288 13.8157 106.255C13.8656 107.274 13.5591 112.317 13.4847 113.829C13.4531 114.303 13.4929 115.188 13.3893 115.599C13.244 116.35 12.5335 116.565 12.1422 116.729C11.4522 117.037 10.0015 116.716 9.28126 116.622C8.50948 116.559 3.713 97.3676 7.56574 82.0596C9.55426 74.1586 13.182 64.4387 16.0815 59.6987C19.0221 54.9692 32.1277 58.8802 26.3295 67.8351Z" fill="white"/>
<path d="M25.8153 67.7935C22.6479 72.7285 19.5113 77.7151 17.074 83.0526C15.5456 86.3436 14.8716 89.5433 14.4028 93.1446C13.548 100.018 13.2385 106.985 12.9909 113.88C12.9696 114.313 13.0511 114.858 12.9475 115.27C12.5957 116.494 11.4429 116.554 10.3831 116.418C9.62165 116.314 9.76554 116.438 9.42681 115.871C8.83137 114.934 8.70003 113.369 8.43407 112.34C7.39178 107.614 6.82316 102.745 6.63523 97.9283C6.21147 86.051 9.47167 74.4882 14.4493 63.7514C15.296 61.9517 16.175 59.3287 18.1421 58.4673C19.6663 57.8008 21.5494 57.9684 23.1129 58.5369C27.4536 60.067 28.0852 64.1641 25.8153 67.7935C25.516 68.287 26.5658 68.2887 26.7928 67.9083C28.5779 64.9882 28.9849 61.4588 26.0657 59.1488C23.9174 57.4267 20.5736 56.8039 17.9579 57.8083C16.5985 58.3414 15.7943 59.2766 15.0925 60.5003C13.6064 63.1017 12.4184 65.9095 11.323 68.6968C8.874 74.9503 6.70239 81.4925 5.94053 88.1706C5.21029 94.3754 5.49874 100.705 6.38429 106.923C6.69982 109.146 7.10802 111.35 7.60886 113.532C7.83395 114.376 7.97533 116.075 8.64326 116.724C9.37279 117.477 11.3284 117.356 12.2757 117.07C14.2322 116.424 13.9262 114.685 14.0112 112.956C14.2021 109.416 14.218 105.875 14.5015 102.315C14.8698 97.2003 14.9713 91.5812 16.5537 86.6848C18.7256 79.9677 22.955 73.7685 26.7517 67.8979C27.1332 67.4251 26.0835 67.4234 25.8153 67.7935Z" fill="#212527"/>
<path d="M17.511 52.03C13.2151 59.6595 7.76917 77.7368 8.52094 78.2922C14.0393 82.3977 12.777 80.2072 15.4301 82.8273C18.5822 85.9248 23.1554 68.1318 35.3145 64.6397" fill="white"/>
<path d="M10.6733 67.7385C12.4632 62.2435 14.3633 56.6902 17.1678 51.6471C17.2068 51.5206 18.059 52.1994 17.8414 52.4554C14.9037 57.7805 12.8863 63.713 11.0605 69.474L11.0605 69.4741C10.3965 71.6235 9.71949 73.815 9.22407 76.0165C9.09696 76.5774 8.80745 77.3651 8.86194 77.936C8.93871 78.883 9.83679 79.1143 10.7702 79.6796C11.817 80.3262 12.997 80.6907 13.9887 81.3664C15.1359 82.1363 15.608 83.2979 16.9519 82.2357C18.1042 81.3451 18.9491 79.8056 19.732 78.6162C21.0152 76.7042 22.2432 74.8214 23.6398 72.9906L24.4364 73.7241C23.4828 74.9622 22.5882 76.2464 21.731 77.5256C20.7857 78.9417 18.3376 84.3258 16.0165 83.4702C15.3843 83.2749 14.9635 82.5448 14.4386 82.1518C13.9136 81.7588 13.3366 81.5343 12.7305 81.2547C11.4469 80.6274 8.82462 79.4018 8.20989 78.1039C7.82817 77.2473 8.36814 75.7982 8.58639 74.9423C9.14691 72.5301 9.88903 70.1278 10.6733 67.7385Z" fill="#212527"/>
<path d="M19.7825 82.7876C19.1181 82.3976 19.1763 82.508 18.8231 82.3065C18.243 81.9426 16.3272 81.12 15.8897 80.8925C15.5364 80.691 6.06734 77.1195 5.37314 77.2744C4.27668 77.5358 5.6346 78.3708 5.65004 79.0681C5.68775 80.1416 3.39887 79.4807 4.38982 80.7563C4.69102 81.1264 5.0251 81.0911 5.0114 81.7332C4.95865 82.5018 4.54404 82.0505 4.16097 82.3938C3.70972 82.8084 4.0791 83.1072 4.49062 83.419C4.97341 83.799 5.18105 83.7246 5.77109 83.9069C6.71131 84.1512 7.58644 84.6062 8.5688 84.8635C10.5335 85.3781 12.2317 86.4567 14.1053 87.2664C14.5137 87.4387 14.867 87.6402 15.3436 87.7413C15.736 87.8163 16.1444 87.9886 16.5659 88.1188C17.3666 88.3662 18.1866 88.8503 18.9651 88.7215C18.9558 88.3031 18.6676 87.8909 18.4507 87.5469C18.3051 87.2711 17.5825 86.7708 17.6023 86.4076C18.0145 86.1195 18.4521 86.347 19.1103 86.458C19.2498 86.4549 20.1739 86.6019 20.2972 86.5015C20.5569 86.2585 19.4197 85.307 19.4687 84.999C19.6157 84.0749 21.6119 85.3841 21.7137 84.3075" fill="white"/>
<path d="M20.0944 82.3756C17.2552 80.806 14.2437 79.6448 11.164 78.5549C10.1234 78.1873 4.70404 75.4051 4.42244 77.8112C4.36351 78.3008 4.93744 78.3858 4.76819 78.9337C4.55987 79.608 4.33989 79.1245 4.02809 79.5361C3.72931 79.9054 3.53469 79.9376 3.6022 80.4663C3.6375 80.8004 4.18848 81.1091 4.22069 81.3038C4.29129 81.9719 4.11036 81.362 3.86983 81.8417C3.71051 82.208 3.33737 82.3697 3.41791 82.8563C3.55978 83.5926 4.43181 83.9082 5.02185 84.0905C6.76593 84.7216 8.58812 85.0998 10.2931 85.8574C12.8572 86.9726 15.9033 89.0678 18.7767 89.0321C19.0557 89.026 19.4548 88.7799 19.3774 88.4328C19.0899 87.4207 18.4515 86.9465 17.9985 86.0217C17.9334 86.2324 17.8132 86.4723 17.7481 86.683C18.4683 86.4438 19.512 86.9509 20.3457 86.7929C20.5955 86.7316 20.7318 86.589 20.8099 86.3362C20.8589 86.0281 20.7716 85.8626 20.6259 85.5868C20.2182 84.8145 19.7508 85.1318 20.7109 85.0129C21.4212 84.9553 21.953 85.0272 22.2003 84.2265C22.3956 83.5943 21.3711 83.324 21.1888 83.914C21.0066 84.504 18.9582 83.3634 18.95 84.8844C18.9562 85.1633 19.5908 86.0981 19.7662 85.8291C19.8344 85.7578 17.6422 85.6808 17.3794 85.7842C17.1166 85.8877 17.0124 86.2249 17.1289 86.4456C17.4815 87.247 18.188 87.6499 18.4464 88.6069C18.651 88.3931 18.8425 88.2214 19.0471 88.0076C16.1867 88.0012 13.28 85.9029 10.7451 84.8428C9.68834 84.3779 8.53739 84.0685 7.45462 83.6878C6.90673 83.5186 6.0669 83.3976 5.60022 83.1149C3.48059 81.9061 5.18869 82.8032 5.28976 82.3265C5.32574 82.0606 5.71189 81.8568 5.70263 81.4384C5.69028 80.8806 5.05193 80.4064 5.21125 80.0401C5.33151 79.8002 5.98665 79.7718 6.18812 79.4185C6.40261 79.0231 6.38032 78.6468 6.21859 78.2737C5.96639 77.5956 5.26911 77.6111 6.03766 77.6638C6.54032 77.6806 7.17559 78.0153 7.68134 78.1716C9.35414 78.7345 10.9718 79.3266 12.6316 79.9316C15.0369 80.8132 17.3611 81.8082 19.6202 83.0139C20.0218 83.5073 20.7297 82.7103 20.0944 82.3756Z" fill="#212527"/>
<path d="M16.8694 83.549C15.7965 82.9868 14.7919 82.3532 13.719 81.791C12.5749 81.1605 11.3236 80.7278 10.1534 80.1816C10.1534 80.1816 10.3536 81.0283 10.5934 81.1486C11.7505 81.7369 13.0019 82.1696 14.159 82.7579C15.2318 83.3202 16.2365 83.9537 17.3093 84.5159C17.3223 84.4738 17.1513 83.6823 16.8694 83.549Z" fill="#212527"/>
<path d="M7.58543 82.6664C7.73791 82.6212 8.06205 82.7675 8.23064 82.8195C8.48351 82.8977 8.73638 82.9758 9.01838 83.1091C9.25824 83.2293 9.57929 83.2362 9.75472 82.9672C9.91713 82.7404 9.79754 82.3802 9.55769 82.26C9.20442 82.0585 8.78296 81.9283 8.3615 81.7981C8.02434 81.694 7.64503 81.5768 7.29793 81.6542C6.63287 81.8643 6.98855 82.8052 7.58543 82.6664Z" fill="#212527"/>
</g>
</svg>
