<svg xmlns="http://www.w3.org/2000/svg" fill="none" viewBox="0 0 180 160"><ellipse cx="96.728" cy="72.773" fill="#FFE9E9" rx="71.271" ry="70.773"/><path fill="#212527" d="m95.293 137.552-.59-.063a1.159 1.159 0 0 1-.73-.32 1.14 1.14 0 0 1-.346-.713c-.32-3.37-3.249-5.739-7.063-6.169-3.431-.382-7.383 1.122-9.977 3.698a3.226 3.226 0 0 1-2.533.995l-2.922-.319a1.882 1.882 0 0 1-1.685-1.463c-.688-2.946-3.346-5.187-6.78-5.57-3.812-.424-8.1 1.145-10.637 4.196a1.994 1.994 0 0 1-1.682.727l-.588-.067a.639.639 0 0 0-.642.424l-.485 1.405a.381.381 0 0 0 .203.501l.668.319a1.237 1.237 0 0 1 .642 1.434c-1.063 4.562 1.605 8.515 6.32 9.038 4.54.507 9.45-2.346 11.629-6.541a2.336 2.336 0 0 1 1.846-1.221 8.395 8.395 0 0 1 3.088.318c.32.094.593.305.764.589.17.285.227.624.158.948-.784 4.361 1.865 8.065 6.42 8.572 4.71.526 9.812-2.55 11.863-7.013a2.197 2.197 0 0 1 1.547-1.192l.838-.163a.667.667 0 0 0 .52-.421l.485-1.406a.375.375 0 0 0-.158-.47.387.387 0 0 0-.172-.053Zm-38.425 6.874c-4.376-.488-6.726-4.387-5.24-8.694 1.487-4.307 6.255-7.409 10.63-6.921 4.376.488 6.742 4.387 5.243 8.69-1.5 4.304-6.257 7.428-10.633 6.925Zm12.087-7.629c.061-.249.113-.497.151-.743a.445.445 0 0 1 .46-.341l5.239.583a.273.273 0 0 1 .243.286.269.269 0 0 1-.044.129c-.125.233-.241.468-.35.711-2.113-1.04-4.443-.851-5.699-.625Zm11.815 10.294c-4.376-.488-6.742-4.387-5.243-8.694 1.5-4.307 6.257-7.409 10.633-6.921 4.376.488 6.726 4.387 5.24 8.691-1.487 4.303-6.255 7.412-10.63 6.924Z" opacity=".2"/><path fill="#212527" d="m91.415 137.807-33.979-1.418a5.78 5.78 0 0 0-2.349.394 5.738 5.738 0 0 0-1.985 1.308l-6.1 6.172a.538.538 0 0 0-.147.44.538.538 0 0 0 .254.389 1.592 1.592 0 0 0 1.926-.249l5.663-5.7a3.482 3.482 0 0 1 2.588-1.026l34.03 1.115.1-1.425Z"/><path fill="#212527" d="m46.13 132.767 33.587 5.286c.793.125 1.55.415 2.224.849a5.726 5.726 0 0 1 1.686 1.672l4.752 7.25a.526.526 0 0 1-.267.787 1.588 1.588 0 0 1-1.849-.618l-4.392-6.695a3.454 3.454 0 0 0-2.33-1.514l-33.572-5.598.16-1.419Z"/><path fill="#687E88" stroke="#212527" stroke-linecap="round" stroke-linejoin="round" stroke-width=".309" d="M66.054 138.423c.398.147-.112 2.933-1.214 3.727-1.1.794-1.65-1.687-1.261-2.468.388-.781 1.226-1.728 2.475-1.259ZM71.935 139.076c-.42.058-.542 2.886.353 3.902.896 1.017 1.987-1.275 1.782-2.126-.205-.851-.812-1.957-2.135-1.776Z"/><path fill="#fff" d="M52.285 129.27c2.012-1.183 6.17-3.07 9.804.047 3.634 3.118 4.575 5.978 3.114 9.386-1.46 3.408-4.857 7.699-10.732 5.824-5.875-1.874-8.44-11.585-2.186-15.257ZM76.163 132.247c2.016-1.183 6.17-3.07 9.805.048 3.634 3.118 4.578 5.974 3.114 9.385-1.464 3.411-4.848 7.712-10.733 5.821-5.884-1.89-8.443-11.581-2.186-15.254Z" opacity=".4"/><path fill="#FF5252" stroke="#212527" stroke-linecap="round" stroke-linejoin="round" stroke-width=".309" d="m92.2 137.418-.591-.067a1.506 1.506 0 0 1-1.284-1.039c-1.06-3.402-4.447-5.793-8.258-6.217-3.432-.385-6.953 1.139-8.905 3.743a2.469 2.469 0 0 1-.99.8 2.494 2.494 0 0 1-1.258.204l-2.924-.318a2.489 2.489 0 0 1-1.183-.478 2.46 2.46 0 0 1-.785-.998 9.893 9.893 0 0 0-3.193-3.816 9.987 9.987 0 0 0-4.657-1.795c-3.81-.427-7.647 1.16-9.438 4.243a1.521 1.521 0 0 1-1.48.733l-.588-.067a.484.484 0 0 0-.54.427l-.16 1.419a.483.483 0 0 0 .321.507l.726.335a1.6 1.6 0 0 1 .944 1.447 9.1 9.1 0 0 0 2.248 6.022 9.25 9.25 0 0 0 11.994 1.659 9.139 9.139 0 0 0 3.82-5.182 1.713 1.713 0 0 1 1.528-1.233 8.49 8.49 0 0 1 3.082.318c.34.102.642.305.864.582.222.277.352.615.375.968a9.106 9.106 0 0 0 2.559 5.902 9.224 9.224 0 0 0 5.84 2.769 9.245 9.245 0 0 0 6.231-1.733 9.133 9.133 0 0 0 3.54-5.379 1.603 1.603 0 0 1 1.242-1.205l.784-.166a.49.49 0 0 0 .415-.424l.16-1.419a.48.48 0 0 0-.254-.486.487.487 0 0 0-.186-.056Zm-35.957 6.972a8.013 8.013 0 0 1-4.26-1.82 7.925 7.925 0 0 1-2.524-3.863 7.877 7.877 0 0 1 .063-4.604 7.933 7.933 0 0 1 2.629-3.794 8.012 8.012 0 0 1 4.308-1.704 8.024 8.024 0 0 1 4.535.96 7.953 7.953 0 0 1 3.235 3.3 7.883 7.883 0 0 1 .842 4.528 7.925 7.925 0 0 1-2.952 5.306 8.032 8.032 0 0 1-5.863 1.691h-.013Zm10.09-7.711c0-.252 0-.501-.016-.75a.317.317 0 0 1 .227-.335.324.324 0 0 1 .145-.009l5.237.584a.314.314 0 0 1 .3.276.315.315 0 0 1-.015.144c-.07.233-.131.472-.183.714a9.544 9.544 0 0 0-5.682-.624h-.013Zm13.805 10.376a8.013 8.013 0 0 1-4.26-1.82 7.924 7.924 0 0 1-2.524-3.863 7.878 7.878 0 0 1 .063-4.604 7.933 7.933 0 0 1 2.629-3.794 8.027 8.027 0 0 1 8.843-.744 7.953 7.953 0 0 1 3.235 3.3 7.883 7.883 0 0 1 .842 4.528 7.926 7.926 0 0 1-2.95 5.304 8.036 8.036 0 0 1-5.859 1.693h-.02Z"/><path fill="#fff" d="M50.942 140.616s-2.228-4.311.6-8.375c2.546-3.654 6.94-3.354 8.825-2.146l-5.823 6.937a27.165 27.165 0 0 1 2.812-5.158s-4.63 3.261-6.414 8.742ZM74.824 143.048s-2.224-4.31.604-8.372c2.543-3.656 6.94-3.357 8.825-2.148l-5.827 6.937c.825-2.716 2.813-5.158 2.813-5.158s-4.63 3.261-6.415 8.741Z" opacity=".5"/><path fill="#212527" d="M53.254 109.253s-6.495 8.005-6.947 8.509c-.453.503-.321 8.607-1.432 12.257-1.11 3.65-4.944 7.399-13.513 25.877l-1.155-35.999 6.314-25.073 16.733 14.429Z" opacity=".2"/><path fill="#FFE0C4" d="M58.021 108.905s-4.29-19.56-7.68-21.996c-1.964-1.41-4.927-1.913-7.515-1.668-1.871.176-3.55.746-4.494 1.655-2.273 2.165-5.564 3.43-7.163 4.836-1.599 1.406-1.323 6.057-2.167 10.036-.844 3.978-2.395 4.201-2.52 8.145-.125 3.943-.85 16.045-3.255 19.529-2.405 3.485-2.312 6.102-3.188 9.564-.877 3.462-8.026 16.182-8.026 16.182L31.452 158s1.415-7.893 3.072-14.346c.783-3.064 1.605-5.808 2.36-7.237a58.972 58.972 0 0 0 3.63-8.566c2.042-2.387 2.932-7.469 3.031-11.875l4.973-3.153c3.888-1.307 9.503-3.918 9.503-3.918Z"/><path fill="#FFE0C4" d="M58.021 108.905s-4.29-19.56-7.68-21.996c-1.964-1.41-4.927-1.913-7.515-1.668-6.055 1.89-7.506 5.388-8.29 6.258-1.043 1.164-2.102 7.935-1.071 11.796 1.03 3.86.542 5.317 0 7.255-1.214 4.298 3.383 6.303 3.939 7.868.555 1.566.918 10.489-.909 13.504-.963 1.594-3.249 9.717-1.968 11.748.784-3.064 1.605-5.808 2.36-7.237a58.961 58.961 0 0 0 3.63-8.566c2.043-2.387 2.932-7.469 3.031-11.875l4.973-3.153c3.885-1.323 9.5-3.934 9.5-3.934Z" opacity=".4" style="mix-blend-mode:multiply"/><path stroke="#212527" stroke-linecap="round" stroke-linejoin="round" stroke-width=".309" d="M34.63 111.682s-1.159-1.202-2.115-1.148M36.736 107.266s-1.313-2.391-3.21-2.818M33.83 92.966s2.7.975 3.233 2.869M48.518 112.82s-.71-.794-.748-1.447"/><path stroke="#212527" stroke-linecap="round" stroke-linejoin="round" stroke-width=".309" d="M31.452 158.001s3.107-17.129 5.432-21.567a59.02 59.02 0 0 0 3.63-8.566c2.043-2.388 2.932-7.472 3.031-11.878l4.973-3.153c3.888-1.304 9.503-3.902 9.503-3.902s-4.289-19.561-7.68-21.997c-3.39-2.436-9.743-2.174-12.022 0-2.28 2.174-5.564 3.411-7.163 4.817-1.598 1.406-1.322 6.057-2.167 10.036-.844 3.978-2.395 4.201-2.52 8.145-.125 3.943-.85 16.045-3.255 19.529-2.405 3.485-2.312 6.102-3.188 9.564C19.15 142.491 12 155.211 12 155.211"/><path fill="#FF5252" stroke="#212527" stroke-linecap="round" stroke-linejoin="round" stroke-width=".309" d="m27.956 48.976-.576-5.132a.317.317 0 0 1 .283-.352l2.186-.242.647 5.763-2.186.242a.323.323 0 0 1-.354-.279ZM37.882 35.354l5.169-.572a.323.323 0 0 1 .355.282l.243 2.17-5.807.643-.244-2.174a.317.317 0 0 1 .284-.349ZM44.786 34.6l5.168-.572a.323.323 0 0 1 .355.281l.244 2.17-5.804.643-.244-2.17a.317.317 0 0 1 .284-.352h-.003Z"/><path fill="#FF5252" stroke="#212527" stroke-linecap="round" stroke-linejoin="round" stroke-width=".309" d="m35.625 112.072-7.67-68.379a6.59 6.59 0 0 1 1.415-4.863 6.68 6.68 0 0 1 4.46-2.45L133.995 25.3a6.718 6.718 0 0 1 4.914 1.404 6.638 6.638 0 0 1 1.681 1.978c.424.763.692 1.602.789 2.468l7.67 68.378a6.6 6.6 0 0 1-1.42 4.87 6.68 6.68 0 0 1-4.471 2.446L42.993 117.921a6.694 6.694 0 0 1-4.905-1.408 6.644 6.644 0 0 1-1.676-1.978 6.586 6.586 0 0 1-.787-2.463Z"/><path fill="#687E88" stroke="#212527" stroke-linecap="round" stroke-linejoin="round" stroke-width=".309" d="M143.158 105.975 42.8 117.076a5.742 5.742 0 0 1-4.194-1.207 5.66 5.66 0 0 1-2.108-3.798l-7.705-68.567a5.641 5.641 0 0 1 1.215-4.167 5.72 5.72 0 0 1 3.826-2.094l100.37-11.097a5.734 5.734 0 0 1 4.194 1.205 5.655 5.655 0 0 1 2.108 3.797l7.705 68.566a5.65 5.65 0 0 1-1.22 4.17 5.718 5.718 0 0 1-3.833 2.091Z"/><path fill="#A3B2BA" stroke="#212527" stroke-linecap="round" stroke-linejoin="round" stroke-width=".309" d="M34.306 77.602a.376.376 0 0 1-.185.395.384.384 0 0 1-.573-.309.376.376 0 0 1 .186-.395.385.385 0 0 1 .533.16.376.376 0 0 1 .039.149Z"/><path fill="#212527" d="M35.038 80.992a.718.718 0 0 1-.371.715.733.733 0 0 1-1.047-.414.718.718 0 0 1 .223-.773.731.731 0 0 1 1.195.472ZM34.098 72.617a.72.72 0 0 1-.371.715.733.733 0 0 1-1.047-.414.72.72 0 0 1 .224-.772.731.731 0 0 1 1.194.47ZM35.115 83.403a.525.525 0 0 1-.47.582.534.534 0 0 1-.586-.468.524.524 0 0 1 .114-.387.533.533 0 0 1 .942.273Z"/><path fill="#fff" d="m40.252 112.412-7.773-69.125a2.786 2.786 0 0 1 .6-2.055 2.824 2.824 0 0 1 1.888-1.034L135.893 29.04a2.836 2.836 0 0 1 2.071.596 2.797 2.797 0 0 1 1.043 1.875l7.753 69.134a2.795 2.795 0 0 1-1.44 2.759c-.324.178-.68.29-1.048.33L43.346 114.892a2.83 2.83 0 0 1-2.064-.604 2.787 2.787 0 0 1-1.03-1.876Z"/><path fill="#FF5252" d="M136.063 29.02 34.795 40.218a2.656 2.656 0 0 0-1.776.97 2.619 2.619 0 0 0-.562 1.934l7.795 69.465a2.61 2.61 0 0 0 .977 1.764 2.65 2.65 0 0 0 1.948.557l101.262-11.199a2.656 2.656 0 0 0 1.776-.971 2.607 2.607 0 0 0 .565-1.933l-7.792-69.466a2.622 2.622 0 0 0-.979-1.761 2.66 2.66 0 0 0-1.946-.56Z" opacity=".3"/><path fill="#FF5252" stroke="#212527" stroke-linecap="round" stroke-linejoin="round" stroke-width=".309" d="m100.745 102.386-17.368 1.912a5.252 5.252 0 0 1-3.847-1.104 5.198 5.198 0 0 1-1.932-3.483 5.157 5.157 0 0 1 1.111-3.819 5.254 5.254 0 0 1 3.505-1.92l17.372-1.912a5.26 5.26 0 0 1 3.847 1.103 5.19 5.19 0 0 1 1.932 3.484 5.164 5.164 0 0 1-1.112 3.821 5.253 5.253 0 0 1-3.508 1.918Z"/><path fill="#A3B2BA" stroke="#212527" stroke-linecap="round" stroke-linejoin="round" stroke-width=".309" d="m103.039 106.926-20.88 2.311.072.64 20.88-2.311-.072-.64Z"/><path fill="#fff" d="m133.077 84.817-83.063 9.185s-3.608-7.702-1.425-12.7c2.183-5 8.793-2.15 11.593-6.788 2.8-4.638-.443-7.712 2.639-14.065 3.082-6.354 11.914-9.742 18.508-6.956 6.594 2.786 8.825 6.988 13.018 5.811 4.193-1.176 6.581-6.583 14.89-6.188 8.308.396 10.093 11.949 9.612 17.649-.482 5.7 16.084.612 14.228 14.052Z"/><path fill="#fff" d="m108.254 59.861-.077-.688-5.201.577.154 1.396.28 2.48 5.2-.573-.356-3.191Z"/><path fill="#212527" d="m103.415 63.58 3.276-.362-.429-3.828-3.277.363.43 3.828Z" opacity=".2"/><path stroke="#212527" stroke-linecap="round" stroke-linejoin="round" stroke-width=".309" d="m108.254 59.861-.077-.688-5.201.577.154 1.396.28 2.48 5.2-.573-.356-3.191ZM106.267 59.385l.038.34"/><path fill="#212527" d="m103.708 67.82-.594-5.3 2.784-2.09 2.757-.306.784 7.007-5.731.688Z"/><path fill="#212527" d="m103.709 67.82 3.098-.342-.793-7.061-2.899 2.104.594 5.298Z" opacity=".2"/><path stroke="#212527" stroke-linecap="round" stroke-linejoin="round" stroke-width=".309" d="m103.708 67.82-.594-5.3 2.784-2.09 2.757-.306.784 7.007-5.731.688Z"/><path stroke="#fff" stroke-linecap="round" stroke-linejoin="round" stroke-width=".309" d="m106.145 61.59.164 1.476M106.408 63.946l.35 3.118" opacity=".2"/><path fill="#A3B2BA" stroke="#212527" stroke-linecap="round" stroke-linejoin="round" stroke-width=".309" d="m82.393 83.626-1.015.113a.587.587 0 0 1-.645-.513l-.245-2.183 2.173-.24.245 2.19a.577.577 0 0 1-.513.633Z"/><path fill="#687E88" stroke="#212527" stroke-linecap="round" stroke-linejoin="round" stroke-width=".309" d="m81.556 86.873 1.36-.15-.35-3.108-1.358.15.348 3.108ZM80.22 81.075l2.797-.313.767-1.275-4.597.51 1.034 1.078Z"/><path fill="#A3B2BA" stroke="#212527" stroke-linecap="round" stroke-linejoin="round" stroke-width=".309" d="m88.087 76.098-3.853.424-1.284-4.014h-.546l1.285 4.18a.412.412 0 0 0-.36.446l.093.816c.033.267.17.51.383.677.212.167.481.245.75.216l3.3-.364a.489.489 0 0 0 .428-.532l-.196-1.85Z"/><path fill="#A3B2BA" d="m88.407 78.107-.196.02a.56.56 0 0 1-.603-.412L86.48 73.31a.993.993 0 0 0-.934-.733l-3.156-.08a.49.49 0 0 1-.469-.43.479.479 0 0 1 .427-.532l.395-.042 3.13.13c.374.016.732.15 1.022.385.29.235.494.556.584.917l1.19 4.807a.315.315 0 0 1-.143.331.323.323 0 0 1-.12.045Z"/><path stroke="#212527" stroke-linecap="round" stroke-linejoin="round" stroke-width=".309" d="m88.407 78.107-.196.02a.56.56 0 0 1-.603-.412L86.48 73.31a.993.993 0 0 0-.934-.733l-3.156-.08a.49.49 0 0 1-.469-.43v0a.479.479 0 0 1 .427-.532l.395-.042 3.13.13c.374.016.732.15 1.022.385.29.235.494.556.584.917l1.19 4.807a.315.315 0 0 1-.143.331.323.323 0 0 1-.12.045"/><path fill="#FF5252" d="m69.34 64.195 4.399 14.27 9.878-1.094.212-1.556-2.414-7.91-1.605-5.314a1.516 1.516 0 0 0-.612-.816 1.533 1.533 0 0 0-.993-.248l-7.664.835a1.419 1.419 0 0 0-1.098.733 1.432 1.432 0 0 0-.102 1.1Z"/><path fill="#212527" d="m69.341 64.194 4.399 14.27 9.878-1.094.212-1.556-2.414-7.91-8.245.912-1.554-5.033a1.116 1.116 0 0 0-.452-.604 1.13 1.13 0 0 0-.735-.18l-.964.105a1.43 1.43 0 0 0-.125 1.09Z" opacity=".2"/><path stroke="#212527" stroke-linecap="round" stroke-linejoin="round" stroke-width=".309" d="m69.34 64.195 4.399 14.27 9.878-1.094.212-1.556-2.414-7.91-1.605-5.314a1.516 1.516 0 0 0-.612-.816 1.533 1.533 0 0 0-.993-.248l-7.664.835a1.419 1.419 0 0 0-1.098.733 1.432 1.432 0 0 0-.102 1.1v0Z"/><path fill="#A3B2BA" stroke="#212527" stroke-linecap="round" stroke-linejoin="round" stroke-width=".309" d="M77.139 89.568c2.026-1.34 8.309-2.034 10.594-1.17l.963-.386c-2.43-1.247-5.778-1.298-5.778-1.298l-1.474.163s-3.24.778-5.336 2.525l1.03.166Z"/><path fill="#A3B2BA" stroke="#212527" stroke-linecap="round" stroke-linejoin="round" stroke-width=".309" d="M87.662 88.98a.85.85 0 0 0 .317.572.862.862 0 0 0 1.205-.133.848.848 0 0 0-.43-1.35.863.863 0 0 0-1.063.58.848.848 0 0 0-.029.332ZM75.62 90.313a.848.848 0 0 0 .623.71.863.863 0 0 0 .901-.294.848.848 0 0 0-.279-1.282.863.863 0 0 0-1.067.23.851.851 0 0 0-.177.636Z"/><path fill="#FF5252" d="m77.303 80.626 9.666-1.068a3.19 3.19 0 0 0 2.13-1.167 3.145 3.145 0 0 0 .673-2.32.928.928 0 0 0-.675-.8.944.944 0 0 0-.368-.03l-14.126 1.563a.94.94 0 0 0-.627.343.924.924 0 0 0-.198.683 3.133 3.133 0 0 0 1.174 2.13 3.181 3.181 0 0 0 2.35.666Z"/><path fill="#212527" d="m73.787 77.775.03.258c.087.78.484 1.494 1.101 1.984.618.49 1.406.717 2.192.63l10.049-1.113a2.99 2.99 0 0 0 1.999-1.091 2.947 2.947 0 0 0 .633-2.176l-.029-.262a.858.858 0 0 0-.597-.73l.055.482c.03.278-.051.557-.228.776-.176.219-.433.36-.713.39l-8.915.989c-.281.03-.563-.05-.783-.226a1.06 1.06 0 0 1-.395-.708l-.061-.564-3.558.392a.887.887 0 0 0-.59.324.875.875 0 0 0-.19.645Z" opacity=".2"/><path stroke="#212527" stroke-linecap="round" stroke-linejoin="round" stroke-width=".309" d="m77.303 80.626 9.666-1.068a3.19 3.19 0 0 0 2.13-1.167 3.145 3.145 0 0 0 .673-2.32v0a.928.928 0 0 0-.675-.8.944.944 0 0 0-.368-.03l-14.126 1.563a.94.94 0 0 0-.627.343.924.924 0 0 0-.198.683 3.133 3.133 0 0 0 1.174 2.13 3.181 3.181 0 0 0 2.35.666v0Z"/><path fill="#A3B2BA" stroke="#212527" stroke-linecap="round" stroke-linejoin="round" stroke-width=".309" d="m77.277 77.294-3.834.424-1.303-4.014-.543-.015 1.285 4.182a.406.406 0 0 0-.347.289.399.399 0 0 0-.013.157l.09.817c.031.27.169.516.382.685.214.17.486.249.758.22l3.3-.367a.485.485 0 0 0 .411-.342.476.476 0 0 0 .016-.187l-.202-1.849Z"/><path fill="#A3B2BA" d="m77.614 79.3-.199.021a.558.558 0 0 1-.6-.414l-1.127-4.403a.991.991 0 0 0-.934-.736l-3.156-.08a.49.49 0 0 1-.472-.427.482.482 0 0 1 .43-.532l.392-.045 3.133.13c.374.016.732.152 1.022.387.29.235.494.557.583.918l1.188 4.82a.299.299 0 0 1-.26.373"/><path stroke="#212527" stroke-linecap="round" stroke-linejoin="round" stroke-width=".309" d="m77.614 79.3-.199.021a.558.558 0 0 1-.6-.414l-1.127-4.403a.991.991 0 0 0-.934-.736l-3.156-.08a.49.49 0 0 1-.472-.427v0a.482.482 0 0 1 .43-.532l.392-.045 3.133.13c.374.016.732.152 1.022.387.29.235.494.557.583.918l1.188 4.82a.299.299 0 0 1-.26.373v0"/><path fill="#A3B2BA" stroke="#212527" stroke-linecap="round" stroke-linejoin="round" stroke-width=".309" d="m84.475 69.31-3.573.383.022.191a.343.343 0 0 0 .126.242.352.352 0 0 0 .263.077h.093l11.67-1.291a.23.23 0 0 0 .195-.163.225.225 0 0 0 .007-.089l-.035-.319-8.768.97Z"/><path fill="#A3B2BA" stroke="#212527" stroke-linecap="round" stroke-linejoin="round" stroke-width=".309" d="m95.33 62.125-.582 5.738a.521.521 0 0 1-.469.469l-9.005.998a.362.362 0 0 1-.377-.238.354.354 0 0 1-.018-.158l.642-5.738a.522.522 0 0 1 .466-.462l8.947-1.01a.358.358 0 0 1 .381.24.352.352 0 0 1 .014.16Z"/><path fill="#fff" stroke="#212527" stroke-linecap="round" stroke-linejoin="round" stroke-width=".309" d="m90.38 64.857.696-.076.266.6-.43.672-.697.076-.266-.596.43-.676Z"/><path fill="#fff" d="m104.235 60.404-.077-.692-5.2.58.157 1.396.276 2.48 5.2-.576-.356-3.188Z"/><path fill="#212527" d="m99.361 63.938 3.293-.364-.409-3.64-3.292.364.408 3.64Z" opacity=".2"/><path stroke="#212527" stroke-linecap="round" stroke-linejoin="round" stroke-width=".309" d="m104.235 60.404-.077-.692-5.2.58.157 1.396.276 2.48 5.2-.576-.356-3.188ZM102.247 59.923l.038.344"/><path fill="#FF5252" d="m99.689 68.36-.594-5.3 2.784-2.092 2.757-.303.787 7.007-5.734.689Z"/><path fill="#212527" d="m101.879 60.968.786 7.036-2.98.328-.59-5.273 2.784-2.091Z" opacity=".2"/><path stroke="#212527" stroke-linecap="round" stroke-linejoin="round" stroke-width=".309" d="m99.689 68.36-.594-5.3 2.784-2.092 2.757-.303.787 7.007-5.734.689ZM102.125 62.129l.167 1.476M102.389 64.488l.349 3.118"/><path fill="#FF5252" d="m98.391 69.395-1.368.151 2.134 19.017 1.369-.152-2.135-19.016Z"/><path fill="#212527" d="m98.391 69.395-1.369.151 2.135 19.017 1.369-.152-2.135-19.016Z" opacity=".2"/><path stroke="#212527" stroke-linecap="round" stroke-linejoin="round" stroke-width=".309" d="m98.391 69.395-1.368.151 2.134 19.017 1.369-.152-2.135-19.016Z"/><path fill="#FF5252" stroke="#212527" stroke-linecap="round" stroke-linejoin="round" stroke-width=".309" d="m89.99 70.33 20.341-2.25 2.132 19.016-1.368.15-2.006-17.9-18.974 2.1-.125-1.115Z"/><path fill="#FF5252" d="m106.321 67.452-29.789 3.296.116 1.049 34.258-3.787-.119-1.053-2.501.278-1.965.217Z"/><path fill="#fff" d="m106.321 67.452-29.789 3.296.116 1.049 34.258-3.787-.119-1.053-2.501.278-1.965.217Z" opacity=".6"/><path stroke="#212527" stroke-linecap="round" stroke-linejoin="round" stroke-width=".309" d="m106.321 67.452-29.789 3.296.116 1.049 34.258-3.787-.119-1.053-2.501.278-1.965.217Z"/><path fill="#FF5252" d="M79.36 90.756 77.227 71.74l13.612-1.505 2.135 19.016-1.371.15-2.007-17.897-10.876 1.202 2.01 17.9-1.368.15Z"/><path fill="#fff" d="M79.36 90.756 77.227 71.74l13.612-1.505 2.135 19.016-1.371.15-2.007-17.897-10.876 1.201 2.01 17.9-1.368.15Z" opacity=".2"/><path stroke="#212527" stroke-linecap="round" stroke-linejoin="round" stroke-width=".309" d="M79.36 90.756 77.227 71.74l13.612-1.505 2.135 19.016-1.371.15-2.007-17.897-10.876 1.202 2.01 17.9-1.368.15Z"/><path fill="#687E88" stroke="#212527" stroke-linecap="round" stroke-linejoin="round" stroke-width=".309" d="M111.751 73.038a7.263 7.263 0 0 0-7.847-.756 7.195 7.195 0 0 0-2.953 2.841 7.126 7.126 0 0 0 .512 7.812 7.22 7.22 0 0 0 3.299 2.437 7.268 7.268 0 0 0 4.104.253 7.234 7.234 0 0 0 3.578-2.013l1.088.864.829-1.03-1.089-.863a7.133 7.133 0 0 0 1.101-5.065 7.167 7.167 0 0 0-2.622-4.48Zm.414 9.52a6.323 6.323 0 0 1-3.03 2.054 6.36 6.36 0 0 1-3.668.036 6.324 6.324 0 0 1-3.071-1.993 6.237 6.237 0 0 1-.757-6.931 6.296 6.296 0 0 1 2.569-2.602 6.354 6.354 0 0 1 6.994.617 6.297 6.297 0 0 1 1.583 1.876 6.237 6.237 0 0 1-.62 6.942Z"/><path fill="#A3B2BA" stroke="#212527" stroke-linecap="round" stroke-linejoin="round" stroke-width=".309" d="M122.621 90.849a1.007 1.007 0 0 1-.679.374 1.02 1.02 0 0 1-.746-.215l-7.911-6.28a.205.205 0 0 1-.054-.064.208.208 0 0 1 .022-.239l.995-1.237a.218.218 0 0 1 .305-.035l7.911 6.28a1.002 1.002 0 0 1 .157 1.416Z"/><path fill="#fff" stroke="#212527" stroke-linecap="round" stroke-linejoin="round" stroke-width=".309" d="m125.915 51.915-15.034 1.66a.964.964 0 0 0-.639.353.953.953 0 0 0-.206.697l.591 5.257c.03.248.157.476.354.633.197.156.448.23.699.205l1.878-.207-1.284 3.188 2.517-3.316 11.907-1.316a.966.966 0 0 0 .639-.353.953.953 0 0 0 .206-.696l-.591-5.26a.96.96 0 0 0-1.037-.845Z"/><path stroke="#212527" stroke-linecap="round" stroke-linejoin="round" stroke-width=".309" d="m45.844 94.464 91.465-10.115"/><path fill="#FFE0C4" d="M46.509 93.185a2.86 2.86 0 0 0-2.588.115 3.702 3.702 0 0 0-1.512 1.734c-1.07 2.213-4.013 7.279-4.527 8.732-.513 1.454-1.605 5.474-2.815 7.215-1.21 1.74-1.792 4.3-1.792 4.3l.964 24.292c.51-3.551 2.247-7.651 2.247-7.651a11.288 11.288 0 0 0 4.022-4.055c.292-.345.55-.716.77-1.109 1.78-3.121 2.406-8.589 2.248-12.794-.164-4.765 1.265-7.013 3.532-11.307 2.266-4.294 1.14-8.643-.55-9.472Z"/><path fill="#FFE0C4" d="M46.508 93.185a2.929 2.929 0 0 0-2.587.115c1.396.29 3.242.886 2.889 1.954-.552 1.687-2.604-.637-3.512.208-.909.844-4.113 5.626-1.788 7.507 2.324 1.881 1.826 5.299.378 6.335-1.447 1.036-.34 3.245.35 6.78.42 2.14-.32 7.084-.963 10.658 1.779-3.121 2.405-8.589 2.248-12.793-.164-4.766 1.264-7.014 3.531-11.308 2.267-4.294 1.14-8.684-.546-9.456Z" opacity=".4" style="mix-blend-mode:multiply"/><path stroke="#212527" stroke-linecap="round" stroke-linejoin="round" stroke-width=".309" d="M34.242 139.558c.51-3.548 2.247-7.651 2.247-7.651a11.323 11.323 0 0 0 4.026-4.055c2.36-2.764 3.181-9.14 3.018-13.903-.164-4.763 1.284-6.997 3.531-11.311 2.247-4.313 1.313-8.572-.562-9.452-1.306-.612-3.027-.363-4.1 1.85-1.072 2.212-4.012 7.277-4.526 8.728-.514 1.45-1.605 5.477-2.816 7.22-1.21 1.744-1.785 4.298-1.785 4.298"/><path stroke="#212527" stroke-linecap="round" stroke-linejoin="round" stroke-width=".309" d="M39.93 104.072s1.968.061 2.89.74M32.528 114.816s-.434-.893 1.512-1.894"/><path fill="#fff" d="m84.463 97.552.002.011c.02.188-.015.342-.105.461-.086.12-.23.212-.432.28.466.026.719.22.757.58l.002.017c.029.27-.073.509-.306.715-.232.207-.543.33-.934.372-.845.089-1.369-.236-1.573-.974l.884-.093c.123.264.324.382.602.353.217-.023.316-.134.294-.333l-.001-.017c-.018-.169-.14-.241-.365-.218l-.344.036-.062-.585.315-.033c.192-.02.28-.108.263-.261l-.001-.012c-.016-.146-.13-.208-.345-.186-.225.024-.361.152-.409.385l-.884.093c0-.357.116-.642.347-.856.235-.219.53-.347.882-.384.394-.04.721-.001.981.12.263.116.407.293.432.53Zm2.649 1.982-.123-1.154-.884.093.123 1.154-1.003.106-.313-2.945 1.002-.106.118 1.104.884-.093-.118-1.103 1.003-.106.313 2.945-1.002.105Zm2.717-.906a.562.562 0 0 0 .349-.15.381.381 0 0 0 .108-.319l-.02-.18-.264.028c-.206.021-.354.061-.443.12-.085.055-.121.142-.108.262.02.184.145.264.378.24Zm-.276.718c-.29.03-.536-.017-.739-.144-.203-.127-.32-.338-.352-.635-.069-.642.419-1.018 1.463-1.127l.281-.03-.007-.067c-.016-.154-.057-.268-.122-.34-.06-.074-.166-.103-.316-.087-.237.025-.358.155-.363.391l-.946.1c-.014-.348.095-.625.327-.832.232-.207.555-.332.968-.375.42-.044.757.013 1.01.173.251.156.397.423.438.802l.203 1.91-.98.102-.036-.343c-.151.293-.428.46-.83.502Zm3.51-3.785c-.286.03-.515-.022-.69-.155-.173-.138-.284-.34-.332-.609l.682-.071c.039.19.132.276.278.261.15-.016.228-.12.234-.315l.676-.071c.007.273-.065.495-.214.666-.145.167-.357.265-.635.294Zm-.082 3.357-1.002.105-.314-2.945 1.003-.105.19 1.79.733-1.887 1.003-.106.314 2.946-1.003.105-.19-1.79-.734 1.887Zm4.631-3.465.073.688-.828.086.241 2.258-1.002.106-.241-2.258-.828.087-.073-.687 2.658-.28Zm1.678 2.802-1.003.106-.313-2.946 1.002-.105.19 1.79.734-1.887 1.002-.105.314 2.945-1.003.105-.19-1.79-.733 1.887Z"/><path fill="#212527" d="M101.442 96.62c3.923.031 8.832 17.591 10.36 19.612 0 0 21.911.749 24.672 3.784 2.761 3.035 1.393 5.598 3.21 8.477 1.818 2.878 2.338 7.731 2.338 7.731l4.815 8.068-20.639 9.819s-11.028-6.274-13.718-7.689c-2.691-1.416-10.662-4.508-12.781-8.506-2.119-3.997-2.225-7.75-2.68-9.41-.457-1.661 8.404-6.635 8.404-6.635l-3.981-25.251Z" opacity=".2"/><path fill="#FFE0C4" d="M149.585 145.886a975.622 975.622 0 0 1-5.185-4.801c-1.961-1.83-3.383-3.166-3.383-3.166-1.169-2.436-2.196-3.255-3.49-5.177-1.294-1.923-1.095-3.95-1.4-6.634-.305-2.685-1.4-4.996-2.071-6.577-.67-1.581-.725-3.217-.86-3.571-.135-.354-2.167-1.912-3.108-3.188a6.28 6.28 0 0 0-1.525-1.46 5.279 5.279 0 0 0-2.208-.896 4.415 4.415 0 0 0-.995-.019 12.25 12.25 0 0 0-1.927.469c-.828.198-2.921-.807-4.128-.759-.225 0-.447.032-.671.064a20.3 20.3 0 0 0-3.057.819c-1.088.319-2.642-.389-3.765-.472h-.023a1.612 1.612 0 0 0-.738.093c-1.063.443-3.095 1.119-3.095 1.119s-.523-1.374-1.082-3.277a35.202 35.202 0 0 0-.302-.957c-.391-1.16-.818-2.183-1.082-3.146a7.72 7.72 0 0 1-.17-.749c-.237-1.394-.539-2.455-1.088-4.54l-.058-.223c-.173-.638-.321-1.275-.485-1.836-.407-1.352-.963-2.29-2.379-2.175-1.245.102-1.926.893-1.961 2.984-.035 2.092-.437 2.037.119 4.954.555 2.917.35 4.907.796 6.348.446 1.441.806 4.358.806 4.358-.62-.144-1.073.207-1.111.459-.039.251.09 2.591.154 4.271.054 1.492-.934 3.118-1.181 4.215v.025a1.902 1.902 0 0 0-.049.361c-.035 1.071.623 3.188 1.284 5.939.662 2.751.643 5.738 1.785 7.415.237.338.526.636.858.883 1.374 1.049 3.595 1.709 5.871 3.376 2.842 2.088 4.874 3.638 6.556 4.144 1.207.37 1.792.766 2.148 1.387.142.273.25.562.321.861.16.577.587.956 1.303 1.562 1.12.93 2.153 1.958 3.086 3.073.873 1.033 2.317 3.054 3.852 5.302l23.638-10.858Z"/><path fill="#FFE0C4" d="M105.307 103.592c.044.252.101.502.17.749-1.842.089-5.037 1.76-4.841 2.802.244 1.275.806 4.288 1.605 4.827.8.538 2.302.656 2.302.656a2.788 2.788 0 0 0-.292.112l-.032.016a2.295 2.295 0 0 0-.998.918c-1.015 1.693-.341 4.75.455 6.108 3.31 5.649 1.48 11.177.283 10.839-1.198-.338-2.549-5.544-2.523-6.848a8.36 8.36 0 0 0-.248-2.266c-.507-.045-1.441.417-2.282.911v-.025c.247-1.097 1.236-2.723 1.181-4.214-.064-1.681-.196-4.02-.154-4.272.042-.252.491-.603 1.111-.459 0 0-.363-2.914-.806-4.358-.443-1.444-.24-3.427-.796-6.348-.555-2.92-.154-2.869-.119-4.954.035-2.085.716-2.869 1.962-2.984 1.422-.114 1.971.823 2.379 2.175a4.923 4.923 0 0 0-.598-.284 2.262 2.262 0 0 0-1.634-.086c-.616.239-1.021 1.004-1.21 1.76-.276 1.087-.106 2.158.523 1.632.713-.593 2.415-.858 3.464-.957.572 2.095.861 3.169 1.098 4.55ZM117.703 146.813a3.639 3.639 0 0 0-.322-.858c-.356-.622-.94-1.017-2.147-1.387-1.683-.519-3.715-2.069-6.556-4.144-2.276-1.667-4.494-2.327-5.872-3.376 1.509.402 3.236-.399 4.081.602 1.226 1.445 5.73 3.003 5.73 3.003 4.684 2.828 5.086 6.16 5.086 6.16ZM111.78 110.499c-.469 0-.963 3.281-.832 4.368.357 2.808 3.804 10.918 1.926 11.158-.773.102-2.603-3.635-3.101-5.458-1.506-5.547-1.839-7.922-1.839-7.922s-1.147-2.997-1.384-5.168c.106.319.205.638.302.956a46.31 46.31 0 0 0 1.082 3.278s2.032-.676 3.094-1.119c.24-.09.497-.122.752-.093Z" opacity=".4" style="mix-blend-mode:multiply"/><path fill="#FF5252" d="M118.624 110.181c-.963.319-1.717 1.508-2.478 1.868-.931.443-3.259-1.323-4.344-1.52 1.124.083 2.677.803 3.766.471a20.257 20.257 0 0 1 3.056-.819Z" opacity=".4"/><path fill="#FFE0C4" d="M125.353 110.388a7.832 7.832 0 0 0-.677 2.273c-.18 2.722 2.889 12.14 1.226 10.871-2.151-1.648-2.125-9.137-3.98-11.553-.594-.775-2.293-1.833-2.617-1.881 1.207-.048 3.3.956 4.129.759a12.182 12.182 0 0 1 1.919-.469ZM144.394 141.072c-1.64-1.141-3.336-2.2-4.337-2.519-2.459-.746-3.39-1.912-4.1-4.039-.709-2.126-.141-2.212 0-4.517s-1.714-4.68-1.483-4.125c.231.554.173 4.782-.527 5.148-.699.367-1.605-2.247-2.221-4.415-.617-2.168-1.872-12.634-2.687-14.547a2.804 2.804 0 0 0-.469-.768 6.316 6.316 0 0 1 1.525 1.46c.941 1.275 2.973 2.828 3.108 3.188.134.36.186 1.989.86 3.571.674 1.581 1.766 3.889 2.071 6.576.305 2.688.112 4.715 1.399 6.634 1.288 1.92 2.322 2.742 3.49 5.178-.013.019 1.409 1.345 3.371 3.175ZM117.806 116.088c.613.395 2.536 7.014 3.21 8.608.674 1.594.764 5.738-.016 4.654-.78-1.084-5.695-14.872-3.194-13.262Z" opacity=".4" style="mix-blend-mode:multiply"/><path stroke="#212527" stroke-linecap="round" stroke-linejoin="round" stroke-width=".309" d="M125.363 155.895c-1.316-1.896-2.511-3.548-3.272-4.447a24.013 24.013 0 0 0-3.085-3.073c-.716-.612-1.143-.985-1.303-1.562a3.625 3.625 0 0 0-.321-.858c-.357-.621-.941-1.017-2.148-1.386-1.682-.52-3.714-2.069-6.556-4.145-2.276-1.667-4.494-2.327-5.871-3.376a3.866 3.866 0 0 1-.858-.883c-1.133-1.664-1.123-4.67-1.785-7.415-.66-2.745-1.319-4.868-1.284-5.939a1.9 1.9 0 0 1 .048-.36v-.026c.248-1.096 1.236-2.722 1.182-4.214-.064-1.68-.196-4.02-.154-4.272.041-.252.491-.603 1.111-.459 0 0-.363-2.914-.806-4.358-.443-1.444-.241-3.427-.796-6.347-.556-2.92-.154-2.87-.12-4.954.036-2.085.717-2.87 1.962-2.984 1.423-.115 1.972.822 2.379 2.174.17.558.321 1.186.485 1.836l.058.223c.549 2.085.851 3.147 1.088 4.54.044.252.101.502.17.749.264.956.691 1.986 1.082 3.147.106.318.206.637.302.956a46.79 46.79 0 0 0 1.082 3.277s2.032-.676 3.095-1.119c.235-.088.488-.119.738-.092h.023c1.123.083 2.677.803 3.765.472a20.186 20.186 0 0 1 3.057-.82v0a6.89 6.89 0 0 1 .671-.064c1.207-.047 3.3.957 4.128.759a12.153 12.153 0 0 1 1.926-.468c.332-.032.666-.025.996.019a5.266 5.266 0 0 1 2.208.896 6.243 6.243 0 0 1 1.525 1.46c.941 1.275 2.973 2.827 3.108 3.188.135.36.186 1.989.86 3.57.675 1.581 1.766 3.889 2.071 6.577.305 2.687.113 4.715 1.4 6.634 1.287 1.919 2.321 2.742 3.49 5.177 0 0 1.422 1.336 3.383 3.166a901.925 901.925 0 0 0 4.578 4.243"/><path stroke="#212527" stroke-linecap="round" stroke-linejoin="round" stroke-width=".309" d="M101.054 113.458c.485 2.014.902 4.561.844 5.674-.058 1.113.989 4.54.777 6.14M102.482 114.797s1.031-1.913 2.077-2.171c1.047-.258 2.247.175 3.387.035 1.14-.14 2.093-1.224 3.108-1.67M101.513 107.265s1.736-1.145 2.889-.689M102.742 106.035a2.317 2.317 0 0 1 1.506-.085M101.057 101.254a4.629 4.629 0 0 1 1.952-.462M98.92 122.403a9.437 9.437 0 0 1 1.563-1.065"/><path stroke="#212527" stroke-linecap="round" stroke-linejoin="round" stroke-width=".309" d="M102.598 123.51a9.467 9.467 0 0 0-.469 1.89M99.866 96.317s.266 2.4.61 2.55c.343.15 2.668-.207 2.754-.654.087-.446-.289-2.161-.289-2.161s-1.919-2.012-3.075.265ZM100.097 118.189s1.656-1.393 1.377-2.754c-.28-1.362-.832-1.218-1.535-1.059M130.236 114.277c.578 2.12 1.461 8.493 1.605 9.424.145.931.784 3.258.784 3.258M115.597 112.585c2.735 2.451.436 1.82 5.098 15.509M141.011 137.917s-2.132-.957-2.63-1.68M115.755 143.205c.751.762 1.563 2.626 1.605 2.741"/></svg>