<svg width="176" height="30" viewBox="0 0 176 30" fill="none" xmlns="http://www.w3.org/2000/svg">
<path fill-rule="evenodd" clip-rule="evenodd" d="M49.0627 10.9135C50.2222 9.65806 51.6332 8.94362 53.5391 8.94362H54.3769V13.499C49.834 13.499 49.0627 13.5662 49.0627 15.255V20.9437H44.6523V8.94362H49.0627V10.9135ZM82.2932 8.71637C85.8875 8.71637 88.688 10.6947 88.688 14.939C88.688 19.1833 85.8875 21.1612 82.2932 21.1612C80.0737 21.1612 78.6067 20.0819 77.817 19.077V20.9389H73.407V6.25H77.817V10.801C78.6067 9.79604 80.0737 8.71637 82.2932 8.71637ZM81.0365 17.2276C82.8226 17.2276 84.0355 16.4278 84.0355 14.939C84.0355 13.4501 82.8226 12.6503 81.0365 12.6503C79.0519 12.6503 77.8169 13.4501 77.8169 14.939C77.8169 16.4278 79.0519 17.2276 81.0365 17.2276ZM97.8176 8.53882C102.096 8.53882 105.579 10.5162 105.579 14.9386C105.579 19.4056 102.096 21.25 97.8176 21.25C93.539 21.25 90.0553 19.4056 90.0553 14.9386C90.0553 10.5162 93.539 8.53882 97.8176 8.53882ZM97.8176 17.3169C99.6037 17.3169 100.817 16.4726 100.817 14.9386C100.817 13.405 99.6037 12.5606 97.8176 12.5606C95.8326 12.5606 94.5983 13.405 94.5983 14.9386C94.5983 16.4726 95.8326 17.3169 97.8176 17.3169ZM63.7211 8.53882C67.9991 8.53882 71.4828 10.5162 71.4828 14.9386C71.4828 19.4056 67.9991 21.25 63.7211 21.25C59.4425 21.25 55.9589 19.4056 55.9589 14.9386C55.9589 10.5162 59.4425 8.53882 63.7211 8.53882ZM63.721 17.3169C65.507 17.3169 66.7199 16.4726 66.7199 14.9386C66.7199 13.405 65.507 12.5606 63.721 12.5606C61.736 12.5606 60.5017 13.405 60.5017 14.9386C60.5017 16.4726 61.736 17.3169 63.721 17.3169ZM113.429 6.27197V8.93871H117.619V12.9387H113.429V15.6058C113.429 17.0277 115.458 16.7614 117.619 16.6498V20.9393C116.142 21.1609 114.62 21.1609 114.356 21.1609C111.775 21.1609 109.019 20.0053 109.019 16.2721V12.9387H106.594V8.93871H109.019V6.27197H113.429ZM130.21 10.801V8.93867H134.62V20.9389H130.21V19.0769C129.421 20.0815 127.954 21.1612 125.734 21.1612C122.139 21.1612 119.339 19.1833 119.339 14.939C119.339 10.6946 122.139 8.71634 125.734 8.71634C127.954 8.71634 129.421 9.796 130.21 10.801ZM126.99 17.2276C128.975 17.2276 130.21 16.4278 130.21 14.939C130.21 13.4501 128.975 12.6503 126.99 12.6503C125.205 12.6503 123.991 13.4501 123.991 14.939C123.991 16.4278 125.205 17.2276 126.99 17.2276ZM170.828 8.96064H175.238V20.9609H170.828V19.0991C170.039 20.1039 168.572 21.1832 166.352 21.1832C162.758 21.1832 159.957 19.2056 159.957 14.9609C159.957 10.7166 162.758 8.73831 166.352 8.73831C168.572 8.73831 170.039 9.81798 170.828 10.8229V8.96064ZM167.608 17.2501C169.594 17.2501 170.828 16.4497 170.828 14.9609C170.828 13.4723 169.594 12.6722 167.608 12.6722C165.823 12.6722 164.61 13.4723 164.61 14.9609C164.61 16.4497 165.823 17.2501 167.608 17.2501ZM139.229 16.3385C140.993 16.3385 142.007 17.495 142.007 18.7613C142.007 20.0281 140.993 21.1393 139.229 21.1393C137.443 21.1393 136.429 20.0281 136.429 18.7613C136.429 17.495 137.443 16.3385 139.229 16.3385ZM153.408 13.9166V8.93867H157.818V20.9389H153.408V19.0565C152.651 20.0564 151.106 21.1612 149.152 21.1612C145.227 21.1612 143.066 19.1393 143.066 15.0277V8.93867H147.476V14.2279C147.476 16.3169 148.601 16.761 150.431 16.761C152.283 16.761 153.408 16.0054 153.408 13.9166Z" fill="#212527"/>
<path fill-rule="evenodd" clip-rule="evenodd" d="M14.8685 10.9702V9H10.4585V21H14.8685V15.3114C14.8685 13.6222 15.6403 13.5557 20.1827 13.5557V9H19.3449C17.439 9 16.028 9.71497 14.8685 10.9702Z" fill="#FF5252"/>
<path fill-rule="evenodd" clip-rule="evenodd" d="M0 15.0002C0 6.72756 6.67571 0 14.8844 0C23.0928 0 29.7684 6.72756 29.7684 15.0002C29.7684 23.2726 23.0928 30 14.8844 30C6.67571 30 0 23.2726 0 15.0002ZM2.97684 15.0002C2.97684 21.6154 8.32014 27 14.8844 27C21.4485 27 26.7915 21.6154 26.7915 15.0002C26.7915 8.38474 21.4485 2.99995 14.8844 2.99995C8.32014 2.99995 2.97684 8.38474 2.97684 15.0002Z" fill="#FF5252"/>
</svg>
