<svg width="20" height="20" viewBox="0 0 20 20" fill="none" xmlns="http://www.w3.org/2000/svg">
<g clip-path="url(#clip0_6002_14006)">
<path d="M10.0029 1.00488C6.24552 1.00488 5.14662 1.00876 4.93301 1.02648C4.16193 1.09057 3.68211 1.21198 3.15938 1.47224C2.75653 1.67228 2.43882 1.90416 2.12527 2.22921C1.55422 2.82199 1.20813 3.55127 1.08285 4.41815C1.02193 4.83899 1.00421 4.92482 1.00062 7.07445C0.999231 7.79099 1.00062 8.73401 1.00062 9.9989C1.00062 13.7533 1.00477 14.8511 1.02276 15.0643C1.08506 15.8146 1.20273 16.2866 1.45192 16.803C1.92813 17.7914 2.83765 18.5334 3.90915 18.8103C4.28015 18.9058 4.68992 18.9584 5.21598 18.9834C5.43886 18.9931 7.71058 19 9.9837 19C12.2568 19 14.5299 18.9972 14.7473 18.9861C15.3564 18.9575 15.7101 18.91 16.1012 18.8089C17.1796 18.5307 18.0725 17.7997 18.5584 16.7975C18.8027 16.2936 18.9266 15.8035 18.9827 15.0924C18.9949 14.9373 19 12.4653 19 9.99655C19 7.52741 18.9945 5.05994 18.9823 4.90489C18.9255 4.18225 18.8016 3.69635 18.5494 3.18275C18.3424 2.76232 18.1126 2.44835 17.779 2.12732C17.1836 1.55862 16.4554 1.21254 15.5877 1.08739C15.1673 1.02662 15.0835 1.00862 12.9322 1.00488H10.0029Z" fill="url(#paint0_radial_6002_14006)"/>
<path d="M10.0029 1.00488C6.24552 1.00488 5.14662 1.00876 4.93301 1.02648C4.16193 1.09057 3.68211 1.21198 3.15938 1.47224C2.75653 1.67228 2.43882 1.90416 2.12527 2.22921C1.55422 2.82199 1.20813 3.55127 1.08285 4.41815C1.02193 4.83899 1.00421 4.92482 1.00062 7.07445C0.999231 7.79099 1.00062 8.73401 1.00062 9.9989C1.00062 13.7533 1.00477 14.8511 1.02276 15.0643C1.08506 15.8146 1.20273 16.2866 1.45192 16.803C1.92813 17.7914 2.83765 18.5334 3.90915 18.8103C4.28015 18.9058 4.68992 18.9584 5.21598 18.9834C5.43886 18.9931 7.71058 19 9.9837 19C12.2568 19 14.5299 18.9972 14.7473 18.9861C15.3564 18.9575 15.7101 18.91 16.1012 18.8089C17.1796 18.5307 18.0725 17.7997 18.5584 16.7975C18.8027 16.2936 18.9266 15.8035 18.9827 15.0924C18.9949 14.9373 19 12.4653 19 9.99655C19 7.52741 18.9945 5.05994 18.9823 4.90489C18.9255 4.18225 18.8016 3.69635 18.5494 3.18275C18.3424 2.76232 18.1126 2.44835 17.779 2.12732C17.1836 1.55862 16.4554 1.21254 15.5877 1.08739C15.1673 1.02662 15.0835 1.00862 12.9322 1.00488H10.0029Z" fill="url(#paint1_radial_6002_14006)"/>
<path d="M9.99873 3.3584C8.19408 3.3584 7.9676 3.36629 7.25881 3.39854C6.55141 3.43094 6.06855 3.54293 5.64604 3.70726C5.209 3.87698 4.83827 4.10401 4.46892 4.4735C4.0993 4.84284 3.87227 5.21357 3.70199 5.65047C3.53725 6.07312 3.42512 6.55612 3.39328 7.26325C3.36158 7.97204 3.35327 8.19866 3.35327 10.0033C3.35327 11.8079 3.3613 12.0337 3.39342 12.7425C3.42595 13.4499 3.53794 13.9328 3.70213 14.3553C3.87199 14.7923 4.09902 15.1631 4.46851 15.5324C4.83772 15.902 5.20845 16.1296 5.64521 16.2993C6.06799 16.4637 6.55099 16.5757 7.25826 16.6081C7.96705 16.6403 8.19339 16.6482 9.9979 16.6482C11.8027 16.6482 12.0285 16.6403 12.7373 16.6081C13.4447 16.5757 13.9281 16.4637 14.3509 16.2993C14.7878 16.1296 15.1579 15.902 15.5272 15.5324C15.8968 15.1631 16.1238 14.7923 16.2941 14.3554C16.4574 13.9328 16.5696 13.4498 16.6028 12.7427C16.6346 12.0339 16.6429 11.8079 16.6429 10.0033C16.6429 8.19866 16.6346 7.97218 16.6028 7.26339C16.5696 6.55598 16.4574 6.07312 16.2941 5.65061C16.1238 5.21357 15.8968 4.84284 15.5272 4.4735C15.1575 4.10387 14.7879 3.87684 14.3505 3.70726C13.9268 3.54293 13.4437 3.43094 12.7363 3.39854C12.0275 3.36629 11.8019 3.3584 9.99665 3.3584H9.99873ZM9.40263 4.55587C9.57955 4.55559 9.77696 4.55587 9.99873 4.55587C11.7729 4.55587 11.9832 4.56223 12.6838 4.59407C13.3317 4.6237 13.6833 4.73196 13.9176 4.82291C14.2277 4.94335 14.4487 5.08732 14.6812 5.31989C14.9137 5.55246 15.0577 5.77396 15.1784 6.08405C15.2694 6.31801 15.3778 6.66964 15.4073 7.31752C15.4391 8.018 15.446 8.22842 15.446 10.0018C15.446 11.7751 15.4391 11.9856 15.4073 12.686C15.3776 13.3339 15.2694 13.6855 15.1784 13.9195C15.058 14.2296 14.9137 14.4504 14.6812 14.6828C14.4486 14.9154 14.2278 15.0594 13.9176 15.1798C13.6836 15.2712 13.3317 15.3792 12.6838 15.4088C11.9833 15.4406 11.7729 15.4476 9.99873 15.4476C8.2244 15.4476 8.01412 15.4406 7.31364 15.4088C6.66576 15.3789 6.31413 15.2706 6.07976 15.1797C5.76966 15.0592 5.54817 14.9153 5.3156 14.6827C5.08302 14.4501 4.93905 14.2292 4.81833 13.919C4.72738 13.685 4.61899 13.3334 4.5895 12.6855C4.55766 11.985 4.55129 11.7746 4.55129 10.0001C4.55129 8.22565 4.55766 8.01634 4.5895 7.31585C4.61913 6.66798 4.72738 6.31635 4.81833 6.08212C4.93877 5.77202 5.08302 5.55052 5.3156 5.31795C5.54817 5.08538 5.76966 4.94141 6.07976 4.82069C6.31399 4.72933 6.66576 4.62135 7.31364 4.59158C7.92663 4.56389 8.16418 4.55559 9.40263 4.5542V4.55587ZM13.5457 5.6592C13.1055 5.6592 12.7483 6.01594 12.7483 6.45631C12.7483 6.89653 13.1055 7.2537 13.5457 7.2537C13.986 7.2537 14.3431 6.89653 14.3431 6.45631C14.3431 6.01608 13.986 5.65892 13.5457 5.65892V5.6592ZM9.99873 6.59087C8.11421 6.59087 6.58629 8.11878 6.58629 10.0033C6.58629 11.8878 8.11421 13.415 9.99873 13.415C11.8833 13.415 13.4106 11.8878 13.4106 10.0033C13.4106 8.11878 11.8833 6.59087 9.99873 6.59087ZM9.99873 7.78833C11.2219 7.78833 12.2137 8.77995 12.2137 10.0033C12.2137 11.2265 11.2219 12.2183 9.99873 12.2183C8.77538 12.2183 7.78376 11.2265 7.78376 10.0033C7.78376 8.77995 8.77538 7.78833 9.99873 7.78833Z" fill="white"/>
</g>
<defs>
<radialGradient id="paint0_radial_6002_14006" cx="0" cy="0" r="1" gradientUnits="userSpaceOnUse" gradientTransform="translate(5.78127 20.386) rotate(-90) scale(17.8345 16.592)">
<stop stop-color="#FFDD55"/>
<stop offset="0.1" stop-color="#FFDD55"/>
<stop offset="0.5" stop-color="#FF543E"/>
<stop offset="1" stop-color="#C837AB"/>
</radialGradient>
<radialGradient id="paint1_radial_6002_14006" cx="0" cy="0" r="1" gradientUnits="userSpaceOnUse" gradientTransform="translate(-2.0151 2.30122) rotate(78.6776) scale(7.97216 32.8699)">
<stop stop-color="#3771C8"/>
<stop offset="0.128" stop-color="#3771C8"/>
<stop offset="1" stop-color="#6600FF" stop-opacity="0"/>
</radialGradient>
<clipPath id="clip0_6002_14006">
<rect width="20" height="20" fill="white"/>
</clipPath>
</defs>
</svg>
